<svg xmlns="http://www.w3.org/2000/svg" xmlns:xlink="http://www.w3.org/1999/xlink" width="500" zoomAndPan="magnify" viewBox="0 0 375 374.999991" height="500" preserveAspectRatio="xMidYMid meet" version="1.0"><path fill="#33691e" d="M 375 187.5 C 375 190.570312 374.925781 193.636719 374.773438 196.699219 C 374.625 199.765625 374.398438 202.824219 374.097656 205.878906 C 373.796875 208.933594 373.421875 211.976562 372.96875 215.011719 C 372.519531 218.046875 371.996094 221.070312 371.398438 224.078125 C 370.796875 227.089844 370.125 230.082031 369.378906 233.058594 C 368.636719 236.035156 367.816406 238.992188 366.925781 241.929688 C 366.035156 244.863281 365.074219 247.777344 364.039062 250.667969 C 363.003906 253.554688 361.902344 256.417969 360.726562 259.253906 C 359.554688 262.089844 358.308594 264.890625 356.996094 267.667969 C 355.6875 270.441406 354.308594 273.179688 352.859375 275.886719 C 351.414062 278.59375 349.902344 281.261719 348.324219 283.894531 C 346.746094 286.527344 345.105469 289.117188 343.402344 291.667969 C 341.695312 294.222656 339.929688 296.730469 338.101562 299.195312 C 336.273438 301.660156 334.386719 304.078125 332.4375 306.449219 C 330.492188 308.820312 328.488281 311.144531 326.429688 313.417969 C 324.367188 315.691406 322.253906 317.914062 320.082031 320.082031 C 317.914062 322.253906 315.691406 324.367188 313.417969 326.429688 C 311.144531 328.488281 308.820312 330.492188 306.449219 332.4375 C 304.078125 334.386719 301.660156 336.273438 299.195312 338.101562 C 296.730469 339.929688 294.222656 341.695312 291.667969 343.402344 C 289.117188 345.105469 286.527344 346.746094 283.894531 348.324219 C 281.261719 349.902344 278.59375 351.414062 275.886719 352.859375 C 273.179688 354.308594 270.441406 355.6875 267.667969 356.996094 C 264.890625 358.308594 262.089844 359.554688 259.253906 360.726562 C 256.417969 361.902344 253.554688 363.003906 250.667969 364.039062 C 247.777344 365.074219 244.863281 366.035156 241.929688 366.925781 C 238.992188 367.816406 236.035156 368.636719 233.058594 369.378906 C 230.082031 370.125 227.089844 370.796875 224.078125 371.398438 C 221.070312 371.996094 218.046875 372.519531 215.011719 372.96875 C 211.976562 373.421875 208.933594 373.796875 205.878906 374.097656 C 202.824219 374.398438 199.765625 374.625 196.699219 374.773438 C 193.636719 374.925781 190.570312 375 187.5 375 C 184.429688 375 181.363281 374.925781 178.300781 374.773438 C 175.234375 374.625 172.175781 374.398438 169.121094 374.097656 C 166.066406 373.796875 163.023438 373.421875 159.988281 372.96875 C 156.953125 372.519531 153.929688 371.996094 150.921875 371.398438 C 147.910156 370.796875 144.917969 370.125 141.941406 369.378906 C 138.964844 368.636719 136.007812 367.816406 133.070312 366.925781 C 130.136719 366.035156 127.222656 365.074219 124.332031 364.039062 C 121.445312 363.003906 118.582031 361.902344 115.746094 360.726562 C 112.910156 359.554688 110.105469 358.308594 107.332031 356.996094 C 104.558594 355.6875 101.820312 354.308594 99.113281 352.859375 C 96.40625 351.414062 93.738281 349.902344 91.105469 348.324219 C 88.472656 346.746094 85.882812 345.105469 83.332031 343.402344 C 80.777344 341.695312 78.269531 339.929688 75.804688 338.101562 C 73.339844 336.273438 70.921875 334.386719 68.550781 332.4375 C 66.179688 330.492188 63.855469 328.488281 61.582031 326.429688 C 59.308594 324.367188 57.085938 322.253906 54.917969 320.082031 C 52.746094 317.914062 50.632812 315.691406 48.570312 313.417969 C 46.511719 311.144531 44.507812 308.820312 42.558594 306.449219 C 40.613281 304.078125 38.726562 301.660156 36.898438 299.195312 C 35.070312 296.730469 33.304688 294.222656 31.597656 291.667969 C 29.894531 289.117188 28.253906 286.527344 26.675781 283.894531 C 25.097656 281.261719 23.585938 278.59375 22.140625 275.886719 C 20.691406 273.179688 19.3125 270.441406 18.003906 267.667969 C 16.691406 264.890625 15.445312 262.089844 14.273438 259.253906 C 13.097656 256.417969 11.996094 253.554688 10.960938 250.667969 C 9.925781 247.777344 8.964844 244.863281 8.074219 241.929688 C 7.183594 238.992188 6.363281 236.035156 5.621094 233.058594 C 4.875 230.082031 4.203125 227.089844 3.601562 224.078125 C 3.003906 221.070312 2.480469 218.046875 2.03125 215.011719 C 1.578125 211.976562 1.203125 208.933594 0.902344 205.878906 C 0.601562 202.824219 0.375 199.765625 0.226562 196.699219 C 0.0742188 193.636719 0 190.570312 0 187.5 C 0 184.429688 0.0742188 181.363281 0.226562 178.300781 C 0.375 175.234375 0.601562 172.175781 0.902344 169.121094 C 1.203125 166.066406 1.578125 163.023438 2.03125 159.988281 C 2.480469 156.953125 3.003906 153.929688 3.601562 150.921875 C 4.203125 147.910156 4.875 144.917969 5.621094 141.941406 C 6.363281 138.964844 7.183594 136.007812 8.074219 133.070312 C 8.964844 130.136719 9.925781 127.222656 10.960938 124.332031 C 11.996094 121.445312 13.097656 118.582031 14.273438 115.746094 C 15.445312 112.910156 16.691406 110.105469 18.003906 107.332031 C 19.3125 104.558594 20.691406 101.820312 22.140625 99.113281 C 23.585938 96.40625 25.097656 93.738281 26.675781 91.105469 C 28.253906 88.472656 29.894531 85.882812 31.597656 83.332031 C 33.304688 80.777344 35.070312 78.269531 36.898438 75.804688 C 38.726562 73.339844 40.613281 70.921875 42.558594 68.550781 C 44.507812 66.179688 46.511719 63.855469 48.570312 61.582031 C 50.632812 59.308594 52.746094 57.085938 54.917969 54.917969 C 57.085938 52.746094 59.308594 50.632812 61.582031 48.570312 C 63.855469 46.511719 66.179688 44.507812 68.550781 42.558594 C 70.921875 40.613281 73.339844 38.726562 75.804688 36.898438 C 78.269531 35.070312 80.777344 33.304688 83.332031 31.597656 C 85.882812 29.894531 88.472656 28.253906 91.105469 26.675781 C 93.738281 25.097656 96.40625 23.585938 99.113281 22.140625 C 101.820312 20.691406 104.558594 19.3125 107.332031 18.003906 C 110.105469 16.691406 112.910156 15.445312 115.746094 14.273438 C 118.582031 13.097656 121.445312 11.996094 124.332031 10.960938 C 127.222656 9.925781 130.136719 8.964844 133.070312 8.074219 C 136.007812 7.183594 138.964844 6.363281 141.941406 5.621094 C 144.917969 4.875 147.910156 4.203125 150.921875 3.601562 C 153.929688 3.003906 156.953125 2.480469 159.988281 2.03125 C 163.023438 1.578125 166.066406 1.203125 169.121094 0.902344 C 172.175781 0.601562 175.234375 0.375 178.300781 0.226562 C 181.363281 0.0742188 184.429688 0 187.5 0 C 190.570312 0 193.636719 0.0742188 196.699219 0.226562 C 199.765625 0.375 202.824219 0.601562 205.878906 0.902344 C 208.933594 1.203125 211.976562 1.578125 215.011719 2.03125 C 218.046875 2.480469 221.070312 3.003906 224.078125 3.601562 C 227.089844 4.203125 230.082031 4.875 233.058594 5.621094 C 236.035156 6.363281 238.992188 7.183594 241.929688 8.074219 C 244.863281 8.964844 247.777344 9.925781 250.667969 10.960938 C 253.554688 11.996094 256.417969 13.097656 259.253906 14.273438 C 262.089844 15.445312 264.890625 16.691406 267.667969 18.003906 C 270.441406 19.3125 273.179688 20.691406 275.886719 22.140625 C 278.59375 23.585938 281.261719 25.097656 283.894531 26.675781 C 286.527344 28.253906 289.117188 29.894531 291.667969 31.597656 C 294.222656 33.304688 296.730469 35.070312 299.195312 36.898438 C 301.660156 38.726562 304.078125 40.613281 306.449219 42.558594 C 308.820312 44.507812 311.144531 46.511719 313.417969 48.570312 C 315.691406 50.632812 317.914062 52.746094 320.082031 54.917969 C 322.253906 57.085938 324.367188 59.308594 326.429688 61.582031 C 328.488281 63.855469 330.492188 66.179688 332.4375 68.550781 C 334.386719 70.921875 336.273438 73.339844 338.101562 75.804688 C 339.929688 78.269531 341.695312 80.777344 343.402344 83.332031 C 345.105469 85.882812 346.746094 88.472656 348.324219 91.105469 C 349.902344 93.738281 351.414062 96.40625 352.859375 99.113281 C 354.308594 101.820312 355.6875 104.558594 356.996094 107.332031 C 358.308594 110.105469 359.554688 112.910156 360.726562 115.746094 C 361.902344 118.582031 363.003906 121.445312 364.039062 124.332031 C 365.074219 127.222656 366.035156 130.136719 366.925781 133.070312 C 367.816406 136.007812 368.636719 138.964844 369.378906 141.941406 C 370.125 144.917969 370.796875 147.910156 371.398438 150.921875 C 371.996094 153.929688 372.519531 156.953125 372.96875 159.988281 C 373.421875 163.023438 373.796875 166.066406 374.097656 169.121094 C 374.398438 172.175781 374.625 175.234375 374.773438 178.300781 C 374.925781 181.363281 375 184.429688 375 187.5 Z M 375 187.5 " fill-opacity="1" fill-rule="nonzero"/><path fill="#ffffff" d="M 159.261719 121.875 C 159.046875 121.875 158.746094 121.988281 158.277344 122.242188 C 157.257812 122.933594 155.242188 125.023438 155.203125 127.445312 C 155.128906 128.804688 154.875 128.804688 155.757812 129.675781 C 156.414062 130.59375 157.039062 130.519531 158.351562 129.824219 C 159.085938 129.273438 159.335938 128.945312 159.601562 128.035156 C 159.890625 126.460938 157.949219 128.765625 157.734375 127.050781 C 157.292969 125.4375 158.539062 124.78125 159.710938 123.242188 C 159.742188 122.492188 159.742188 121.914062 159.261719 121.875 Z M 159.261719 121.875 " fill-opacity="1" fill-rule="nonzero"/><path fill="#ffffff" d="M 178.199219 121.988281 C 177.835938 122.023438 177.394531 122.503906 176.773438 123.601562 C 176.335938 124.773438 174.429688 126.5625 175.820312 130.226562 C 176.914062 132.535156 177.394531 136.304688 176.878906 140.484375 C 176.109375 141.695312 175.921875 142.097656 174.898438 143.269531 C 173.476562 144.84375 171.898438 144.441406 170.726562 143.859375 C 169.59375 143.128906 168.710938 142.726562 168.195312 140.34375 C 168.308594 136.539062 168.523438 130.3125 167.832031 128.992188 C 166.808594 126.9375 165.121094 127.667969 164.390625 128.296875 C 160.914062 131.484375 159.1875 136.828125 158.164062 141.074219 C 157.179688 144.1875 156.148438 143.304688 155.457031 142.03125 C 153.695312 140.417969 153.589844 127.566406 151.460938 129.65625 C 148.058594 139.359375 153.402344 149.980469 157.105469 148.960938 C 159.777344 150.054688 161.464844 144.964844 162.5625 139.398438 C 163.292969 137.859375 163.882812 137.671875 164.25 138.476562 C 164.175781 145.875 164.804688 147.523438 166.707031 149.757812 C 170.914062 153.019531 174.429688 150.160156 174.722656 149.90625 C 174.976562 149.617188 178.023438 146.605469 178.023438 146.605469 C 178.753906 145.835938 179.746094 145.761719 180.769531 146.457031 C 181.789062 147.375 181.648438 148.949219 183.804688 150.046875 C 185.632812 150.777344 189.515625 150.234375 190.398438 148.660156 C 191.605469 146.570312 191.898438 145.875 192.449219 145.070312 C 193.332031 143.933594 194.792969 144.449219 194.792969 144.777344 C 194.679688 145.433594 193.808594 146.0625 194.390625 147.234375 C 195.414062 148.003906 195.675781 147.488281 196.257812 147.347656 C 198.414062 146.289062 200.023438 141.636719 200.023438 141.636719 C 200.136719 139.914062 199.144531 140.023438 198.523438 140.390625 C 197.679688 140.90625 197.644531 141.085938 196.800781 141.5625 C 195.742188 141.75 193.6875 142.445312 192.695312 140.867188 C 191.671875 139.003906 191.671875 136.367188 190.867188 134.457031 C 190.867188 134.304688 189.507812 131.492188 190.789062 131.304688 C 191.410156 131.417969 192.804688 131.785156 193.023438 130.648438 C 193.679688 129.515625 191.558594 126.328125 190.125 124.714844 C 188.839844 123.328125 187.125 123.179688 185.4375 124.566406 C 184.265625 125.625 184.453125 126.835938 184.191406 128.007812 C 183.898438 129.328125 183.976562 130.941406 185.289062 132.695312 C 186.460938 135 188.617188 137.972656 187.921875 142.179688 C 187.921875 142.179688 186.675781 144.160156 184.480469 143.90625 C 183.5625 143.71875 182.101562 143.316406 181.292969 137.492188 C 180.703125 133.097656 181.445312 126.945312 179.570312 124.050781 C 179.148438 122.933594 178.78125 121.914062 178.199219 121.988281 Z M 178.199219 121.988281 " fill-opacity="1" fill-rule="nonzero"/><path fill="#ffffff" d="M 172.191406 122.464844 C 171.636719 122.503906 171.019531 123.160156 170.503906 124.445312 C 170.0625 125.398438 169.519531 130.453125 169.621094 130.453125 C 169.257812 131.953125 171.195312 132.609375 172.078125 130.667969 C 173.363281 127.117188 173.398438 125.617188 173.464844 124.117188 C 173.25 122.933594 172.78125 122.390625 172.191406 122.464844 Z M 172.191406 122.464844 " fill-opacity="1" fill-rule="nonzero"/><path fill="#ffffff" d="M 194.34375 122.859375 C 193.753906 122.898438 193.285156 123.226562 193.097656 124.105469 C 192.882812 126.121094 192.984375 127.21875 193.3125 128.867188 C 193.601562 130.003906 195.214844 131.867188 196.023438 132.976562 C 199.867188 138.101562 203.53125 143.304688 207.121094 148.648438 C 207.675781 152.605469 208.078125 156.523438 208.332031 160.367188 C 208.921875 168.863281 209.101562 179.445312 208.546875 188.382812 C 210.160156 188.457031 212.71875 185.820312 213.601562 181.96875 C 214.191406 176.625 213.382812 165.75 213.347656 162.601562 C 213.308594 161.277344 213.195312 159.742188 213.132812 158.101562 C 217.265625 164.878906 221.296875 172.050781 225.253906 179.925781 C 226.679688 179.230469 226.351562 171.132812 225.507812 169.996094 C 222.355469 163.179688 217.996094 156.488281 216.609375 153.917969 C 216.09375 152.960938 214.414062 150.367188 212.363281 147.402344 C 211.996094 143.117188 211.59375 139.492188 211.339844 138.394531 C 210.683594 133.894531 213.207031 138.910156 212.839844 136.265625 C 212.035156 131.765625 209.539062 128.679688 206.578125 124.546875 C 205.660156 123.226562 205.660156 122.933594 204.195312 124.875 C 203.316406 126.851562 203.316406 128.539062 203.578125 130.078125 C 203.210938 129.523438 202.734375 128.832031 202.039062 128.023438 C 199.507812 125.832031 199.332031 125.71875 197.242188 123.957031 C 196.585938 123.488281 195.300781 122.757812 194.34375 122.859375 Z M 194.34375 122.859375 " fill-opacity="1" fill-rule="nonzero"/><path fill="#ffffff" d="M 259.902344 123.523438 C 259.613281 123.488281 259.3125 123.636719 258.945312 124.144531 C 258.289062 124.734375 257.585938 125.757812 257.585938 127.105469 C 257.773438 129.488281 258.179688 131.945312 258.355469 134.324219 C 258.394531 134.652344 258.46875 134.980469 258.542969 135.28125 C 258.289062 134.953125 258.066406 134.691406 257.925781 134.585938 C 253.273438 129.710938 260.054688 133.78125 257.042969 130.011719 C 254.484375 127.226562 253.742188 126.308594 251.550781 124.632812 C 250.453125 123.9375 249.789062 122.578125 249.421875 124.882812 C 249.308594 126.898438 249.132812 129.242188 249.273438 130.960938 C 249.273438 131.914062 250.257812 133.707031 251.101562 134.726562 C 254.175781 138.535156 257.363281 142.601562 260.550781 146.8125 C 261.207031 155.457031 261.394531 163.367188 262.050781 171.976562 C 261.976562 175.679688 260.839844 180.582031 259.78125 181.058594 C 259.78125 181.058594 258.132812 182.015625 256.996094 180.945312 C 256.226562 180.617188 253.003906 175.601562 253.003906 175.601562 C 251.390625 174.101562 250.292969 174.542969 249.121094 175.601562 C 245.933594 178.714844 244.472656 184.539062 242.277344 188.53125 C 241.726562 189.414062 240.148438 190.179688 238.398438 188.457031 C 233.898438 182.34375 236.53125 173.664062 235.976562 175.894531 C 231.984375 180.367188 233.746094 187.800781 234.65625 189.402344 C 235.976562 192.039062 237 193.726562 239.558594 195.007812 C 241.902344 196.734375 243.695312 195.664062 244.726562 194.457031 C 247.070312 192.039062 247.070312 185.8125 248.164062 184.601562 C 248.933594 182.335938 250.875 182.738281 251.832031 183.722656 C 252.75 185.042969 253.808594 185.878906 255.160156 186.582031 C 257.351562 188.523438 259.960938 188.886719 262.519531 187.132812 C 264.28125 186.148438 265.414062 184.867188 266.4375 182.335938 C 267.535156 179.371094 266.992188 163.914062 266.765625 155.304688 C 268.414062 157.648438 270.027344 159.992188 271.640625 162.414062 C 272.371094 169.960938 272.699219 177.394531 272.445312 184.527344 C 272.296875 185.953125 277.386719 180.28125 277.351562 177.609375 C 277.351562 175.265625 277.351562 173.175781 277.351562 171.195312 C 279.84375 175.152344 282.253906 179.183594 284.53125 183.242188 C 285.917969 182.511719 285.449219 174.523438 284.570312 173.429688 C 282.1875 169.433594 279.148438 165.148438 276.769531 161.820312 C 276.289062 157.613281 275.671875 152.632812 275.382812 151.085938 C 274.941406 148.742188 274.5 145.152344 273.804688 142.367188 C 273.617188 141.273438 273.074219 137.757812 273.214844 137.390625 C 273.507812 136.621094 274.539062 137.429688 275.082031 136.507812 C 275.851562 135.664062 272.371094 126.730469 270.648438 124.199219 C 270.027344 123.066406 268.855469 123.429688 267.460938 125.296875 C 266.136719 126.507812 266.617188 129.328125 267.132812 131.960938 C 268.414062 138.742188 269.585938 145.621094 270.496094 152.503906 C 268.808594 149.972656 266.726562 146.933594 264.675781 143.972656 C 264.636719 143.71875 264.421875 142.648438 264.421875 142.648438 C 264.421875 142.5 264.167969 137.117188 263.90625 135.804688 C 263.867188 135.289062 263.71875 135.148438 264.273438 135.214844 C 264.863281 135.695312 264.964844 135.730469 265.292969 135.871094 C 265.882812 135.984375 266.390625 134.992188 266.0625 134.082031 C 264.234375 130.714844 262.398438 127.339844 260.605469 124.011719 C 260.410156 123.777344 260.195312 123.5625 259.902344 123.523438 Z M 259.902344 123.523438 " fill-opacity="1" fill-rule="nonzero"/><path fill="#ffffff" d="M 90.675781 123.703125 C 89.691406 123.664062 88.546875 124.292969 88.988281 125.492188 C 88.734375 126.148438 90.964844 128.390625 91.367188 129.601562 C 91.695312 130.480469 91.003906 133.304688 91.734375 133.554688 C 92.429688 133.847656 93.347656 131.617188 93.675781 129.523438 C 93.890625 128.390625 93.710938 124.546875 91.117188 123.742188 C 90.964844 123.703125 90.816406 123.703125 90.675781 123.703125 Z M 90.675781 123.703125 " fill-opacity="1" fill-rule="nonzero"/><path fill="#ffffff" d="M 283.445312 123.703125 C 283.226562 123.742188 282.929688 124.105469 282.488281 125.023438 C 281.464844 126.710938 281.101562 129.75 281.53125 132.382812 C 284.023438 149.195312 285.851562 165.414062 286.21875 180.320312 C 286.003906 181.707031 285.964844 182.476562 285.300781 184.238281 C 283.835938 186.101562 282.1875 188.484375 280.6875 189.617188 C 279.148438 190.753906 275.925781 191.8125 274.867188 192.65625 C 271.539062 194.597656 271.5 196.828125 274.210938 196.902344 C 278.898438 196.351562 284.429688 195.984375 288.234375 190.238281 C 289.257812 188.625 290.464844 184.226562 290.503906 181.554688 C 290.867188 165.882812 290.316406 150.535156 287.972656 139.179688 C 287.820312 138.085938 287.316406 135.515625 287.53125 135.1875 C 287.820312 134.417969 289.359375 135.261719 289.914062 134.382812 C 290.679688 133.574219 285.957031 127.460938 284.269531 124.855469 C 283.921875 124.21875 283.742188 123.703125 283.445312 123.703125 Z M 283.445312 123.703125 " fill-opacity="1" fill-rule="nonzero"/><path fill="#ffffff" d="M 234.375 123.964844 C 234.1875 124.003906 233.898438 124.292969 233.390625 124.988281 C 232.070312 129.273438 231.601562 132.75 232.105469 135.421875 C 235.472656 152.925781 238.921875 168.890625 238.367188 185.597656 C 239.945312 185.597656 241.773438 181.929688 242.578125 178.3125 C 243.019531 173.335938 242.289062 170.296875 242.175781 167.398438 C 242.023438 164.464844 238.847656 140.699219 238.21875 138.507812 C 237.414062 134.296875 241.292969 137.953125 240.890625 135.507812 C 239.53125 132.429688 236.203125 127.960938 235.144531 125.289062 C 234.742188 124.585938 234.703125 123.929688 234.375 123.964844 Z M 234.375 123.964844 " fill-opacity="1" fill-rule="nonzero"/><path fill="#ffffff" d="M 114.917969 124.332031 C 114.476562 124.40625 114.113281 124.734375 113.933594 125.289062 C 113.859375 125.652344 114.121094 126.273438 113.785156 126.460938 C 113.570312 126.648438 112.828125 126.535156 112.867188 125.503906 C 112.867188 125.175781 112.648438 124.847656 112.5 124.621094 C 112.351562 124.507812 112.246094 124.507812 111.984375 124.507812 C 111.65625 124.507812 111.695312 124.585938 111.507812 124.875 C 111.429688 125.128906 111.320312 125.390625 111.320312 125.71875 C 111.28125 126.085938 111.132812 126.195312 110.878906 126.273438 C 110.585938 126.273438 110.664062 126.273438 110.398438 126.121094 C 110.25 125.972656 110.070312 125.90625 110.070312 125.644531 C 110.070312 125.351562 109.996094 124.914062 109.921875 124.726562 C 109.808594 124.574219 109.59375 124.472656 109.367188 124.433594 C 108.121094 124.433594 108.007812 125.859375 108.085938 126.414062 C 108.007812 126.523438 107.972656 129.046875 109.660156 129.742188 C 111.964844 130.835938 116.25 130.359375 116.070312 126.703125 C 116.070312 126.375 115.996094 125.277344 115.960938 124.976562 C 115.726562 124.433594 115.320312 124.257812 114.917969 124.332031 Z M 114.917969 124.332031 " fill-opacity="1" fill-rule="nonzero"/><path fill="#ffffff" d="M 145.566406 124.332031 C 144.757812 124.367188 144.066406 124.585938 143.476562 124.921875 C 141.9375 126.382812 141.609375 128.691406 142.78125 130.164062 C 143.953125 130.679688 145.125 131.851562 144.355469 132.507812 C 141.054688 136.023438 132.523438 141.882812 132.085938 142.941406 L 132.046875 142.976562 L 132.046875 143.054688 C 132.046875 143.054688 132.085938 143.054688 132.085938 143.089844 L 132.121094 143.089844 L 132.121094 143.128906 L 132.160156 143.128906 C 132.601562 143.417969 137.945312 143.417969 138.535156 143.164062 L 138.570312 143.128906 C 140.4375 142.433594 149.15625 132.46875 149.15625 132.46875 C 148.679688 132.101562 148.273438 131.8125 147.835938 131.410156 C 147.320312 131.007812 147.394531 130.566406 147.835938 130.164062 C 149.960938 128.914062 149.296875 126.132812 148.164062 124.882812 C 147.214844 124.433594 146.335938 124.292969 145.566406 124.332031 Z M 145.566406 124.332031 " fill-opacity="1" fill-rule="nonzero"/><path fill="#ffffff" d="M 225.695312 124.367188 C 225.476562 124.40625 225.214844 124.773438 224.773438 125.652344 C 223.753906 127.378906 223.011719 130.304688 223.125 133.050781 C 225.355469 148.5 226.023438 162.019531 227.484375 177.46875 C 227.632812 178.96875 227.410156 181.132812 226.386719 182.007812 C 222.722656 185.851562 217.414062 190.574219 211.667969 192.742188 C 211.050781 193.433594 213.207031 196.40625 215.992188 196.40625 C 220.679688 195.890625 224.8125 193.257812 228.628906 186.335938 C 229.648438 184.726562 231.449219 181.285156 231.488281 178.613281 C 231.851562 162.898438 230.71875 150.703125 228.335938 139.351562 C 228.1875 138.253906 228.300781 136.929688 228.488281 136.601562 C 228.777344 136.238281 229.847656 136.601562 230.351562 135.722656 C 231.160156 134.914062 228.226562 128.136719 226.546875 125.539062 C 226.210938 124.875 225.984375 124.367188 225.695312 124.367188 Z M 225.695312 124.367188 " fill-opacity="1" fill-rule="nonzero"/><path fill="#ffffff" d="M 101.550781 124.835938 C 100.894531 124.914062 100.265625 125.457031 99.976562 126.160156 C 99.863281 128.617188 99.863281 131.101562 100.164062 133.378906 C 101.296875 137.410156 101.625 140.925781 102.179688 145.023438 C 102.328125 150.515625 99.027344 147.402344 99.179688 144.695312 C 99.945312 141.140625 99.730469 135.570312 99.066406 134.148438 C 98.511719 132.757812 97.894531 132.382812 96.570312 132.648438 C 95.511719 132.570312 92.839844 135.507812 92.070312 140.371094 C 92.070312 140.371094 91.453125 142.867188 91.152344 145.097656 C 90.789062 147.628906 89.136719 149.382812 87.964844 144.769531 C 86.980469 141.367188 86.351562 133.050781 84.664062 135.027344 C 84.1875 141.507812 83.605469 152.933594 89.136719 154.105469 C 95.804688 154.726562 92.101562 142.828125 94.519531 140.664062 C 94.996094 139.566406 95.839844 139.566406 95.90625 140.914062 L 95.90625 151.023438 C 95.832031 154.320312 97.996094 155.304688 99.675781 155.960938 C 101.4375 155.851562 102.570312 155.886719 103.265625 157.574219 C 103.554688 163.433594 103.820312 169.257812 104.109375 175.117188 C 104.109375 175.117188 108.140625 176.289062 108.355469 165.261719 C 108.542969 158.8125 107.070312 153.355469 107.914062 152.117188 C 107.953125 150.871094 109.527344 150.835938 110.625 151.425781 C 112.386719 152.671875 113.15625 154.171875 115.867188 153.582031 C 120 152.445312 122.457031 150.429688 122.53125 147.28125 C 122.277344 144.242188 121.941406 141.234375 120.628906 138.234375 C 120.816406 137.679688 119.859375 136.257812 120.039062 135.703125 C 120.769531 136.875 121.902344 136.761719 122.128906 135.703125 C 121.433594 133.398438 120.367188 131.164062 118.574219 130.210938 C 117.113281 128.925781 114.984375 129.226562 114.214844 131.898438 C 113.851562 134.972656 115.3125 138.636719 117.542969 141.636719 C 118.058594 142.808594 118.714844 144.75 118.425781 146.511719 C 117.214844 147.167969 116.042969 146.914062 115.023438 145.855469 C 115.023438 145.855469 111.757812 143.398438 111.757812 142.855469 C 112.640625 137.289062 111.945312 136.632812 111.46875 135.09375 C 111.140625 132.964844 110.109375 132.273438 109.273438 130.808594 C 108.46875 129.929688 107.371094 129.929688 106.820312 130.808594 C 105.355469 133.339844 106.050781 138.722656 107.109375 141.140625 C 107.878906 143.371094 109.011719 144.769531 108.46875 144.769531 C 108.027344 146.015625 107.082031 145.726562 106.414062 144.289062 C 105.429688 141.289062 105.242188 136.820312 105.242188 134.804688 C 104.953125 132.308594 104.625 126.964844 102.976562 125.617188 C 102.570312 124.988281 102.066406 124.808594 101.550781 124.835938 Z M 101.550781 124.835938 " fill-opacity="1" fill-rule="nonzero"/><path fill="#ffffff" d="M 124.949219 124.875 C 124.660156 124.914062 124.292969 125.128906 123.851562 125.203125 C 122.429688 125.644531 121.105469 126.890625 121.507812 129.273438 C 123.195312 139.453125 124.292969 147.214844 125.980469 157.398438 C 126.234375 158.605469 125.210938 160.179688 123.929688 160.03125 C 121.734375 158.53125 121.179688 155.53125 117.449219 155.671875 C 114.742188 155.671875 111.664062 158.632812 111.261719 161.457031 C 110.820312 163.726562 110.671875 166.179688 111.261719 168.121094 C 113.164062 170.429688 115.472656 170.175781 117.449219 169.660156 C 119.101562 169.003906 120.449219 167.351562 121.039062 167.757812 C 121.40625 168.414062 121.003906 173.691406 113.316406 177.789062 C 108.589844 179.914062 104.820312 180.421875 102.769531 176.539062 C 101.523438 174.121094 102.882812 164.933594 99.769531 167.054688 C 90.609375 190.640625 121.226562 193.929688 124.632812 168.039062 C 124.847656 167.304688 125.550781 166.574219 126.019531 166.714844 C 126.207031 166.828125 126.421875 167.117188 126.460938 167.632812 C 125.765625 191.109375 102.804688 192.722656 98.914062 185.324219 C 97.929688 183.601562 97.632812 179.71875 97.554688 177.414062 C 97.367188 175.988281 97.003906 175.179688 96.601562 174.851562 C 95.679688 174.160156 94.40625 175.988281 94.144531 179.136719 C 93.777344 181.695312 93.890625 182.398438 93.890625 184.847656 C 95.101562 203.382812 124.648438 195.429688 129.449219 180.085938 C 131.832031 172.171875 129.414062 166.210938 130.21875 165.46875 C 130.21875 165.46875 130.21875 165.46875 130.257812 165.46875 C 130.257812 165.46875 130.257812 165.429688 130.292969 165.429688 C 130.292969 165.429688 130.292969 165.429688 130.332031 165.429688 C 130.332031 165.394531 130.40625 165.394531 130.40625 165.394531 C 133.367188 168.542969 137.476562 165.796875 138.394531 164.699219 C 138.757812 164.148438 139.753906 163.820312 140.410156 164.511719 C 142.714844 166.164062 146.710938 165.394531 147.554688 162.496094 C 148.03125 159.636719 148.433594 156.710938 148.539062 153.703125 C 147.039062 154.144531 145.867188 154.507812 145.351562 155.023438 C 145.238281 155.136719 145.164062 155.277344 145.132812 155.429688 C 145.023438 156.273438 144.882812 157.117188 144.769531 157.960938 C 144.730469 158.035156 144.730469 158.070312 144.695312 158.148438 C 144.617188 158.257812 144.507812 158.335938 144.402344 158.398438 C 143.886719 158.691406 142.976562 158.511719 142.902344 157.742188 C 142.210938 154.519531 139.273438 154.117188 137.523438 159.101562 C 136.3125 160.085938 134.15625 160.273438 133.929688 158.8125 C 134.222656 155.484375 132.871094 155.007812 130.164062 156.617188 C 129.28125 149.953125 128.4375 143.617188 127.566406 136.988281 C 128.699219 136.949219 129.722656 137.757812 130.753906 136.472656 C 129.65625 132.992188 127.273438 125.925781 125.953125 125.269531 L 125.90625 125.269531 C 125.832031 125.195312 125.757812 125.117188 125.71875 125.082031 C 125.679688 125.042969 125.644531 125.007812 125.605469 125.007812 C 125.605469 124.96875 125.570312 124.96875 125.53125 124.929688 C 125.492188 124.894531 125.417969 124.894531 125.34375 124.855469 C 125.203125 124.875 125.101562 124.875 124.949219 124.875 Z M 124.949219 124.875 " fill-opacity="1" fill-rule="nonzero"/><path fill="#ffffff" d="M 216.28125 124.949219 C 215.109375 124.914062 213.824219 125.644531 214.304688 127.105469 C 214.011719 127.914062 216.835938 130.621094 217.304688 132.121094 C 218.109375 134.390625 216.683594 136.554688 217.519531 136.882812 C 218.289062 137.25 219.382812 134.539062 219.789062 132.007812 C 220.265625 129.992188 218.804688 125.820312 216.75 124.976562 C 216.609375 124.949219 216.46875 124.949219 216.28125 124.949219 Z M 216.28125 124.949219 " fill-opacity="1" fill-rule="nonzero"/><path fill="#ffffff" d="M 145.125 127.445312 C 145.679688 127.367188 146.335938 127.882812 146.625 128.578125 C 146.953125 129.308594 146.8125 130.003906 146.257812 130.152344 C 145.667969 130.265625 144.976562 129.789062 144.648438 129.054688 C 144.320312 128.324219 144.460938 127.59375 145.050781 127.445312 C 145.058594 127.445312 145.097656 127.445312 145.125 127.445312 Z M 145.125 127.445312 " fill-opacity="1" fill-rule="nonzero"/><path fill="#ffffff" d="M 277.117188 130.847656 C 276.054688 130.808594 274.882812 131.617188 275.324219 133.226562 C 275.070312 134.070312 277.632812 137.035156 278.035156 138.648438 C 278.398438 139.78125 277.480469 143.484375 278.25 143.8125 C 278.945312 144.214844 279.9375 141.253906 280.304688 138.535156 C 280.519531 137.070312 279.421875 131.867188 277.554688 130.914062 C 277.40625 130.882812 277.257812 130.882812 277.117188 130.847656 Z M 277.117188 130.847656 " fill-opacity="1" fill-rule="nonzero"/><path fill="#ffffff" d="M 204.121094 132.675781 C 204.234375 133.078125 204.335938 133.519531 204.414062 133.996094 C 204.601562 134.953125 204.816406 135.898438 205.003906 136.855469 C 204.160156 135.683594 203.464844 134.765625 203.175781 134.4375 C 201.273438 132.167969 203.210938 132.9375 204.121094 132.675781 Z M 204.121094 132.675781 " fill-opacity="1" fill-rule="nonzero"/><path fill="#ffffff" d="M 220.929688 140.914062 C 220.527344 140.992188 220.125 141.355469 219.976562 141.898438 C 219.898438 142.265625 220.164062 142.882812 219.824219 143.070312 C 219.636719 143.257812 218.867188 143.148438 218.90625 142.117188 C 218.90625 141.789062 218.691406 141.421875 218.539062 141.234375 C 218.390625 141.121094 218.289062 141.121094 218.023438 141.121094 C 217.695312 141.121094 217.734375 141.195312 217.546875 141.488281 C 217.472656 141.742188 217.359375 142.003906 217.359375 142.332031 C 217.320312 142.695312 217.171875 142.808594 216.917969 142.847656 C 216.628906 142.847656 216.664062 142.882812 216.441406 142.734375 C 216.289062 142.585938 216.113281 142.519531 216.113281 142.257812 C 216.113281 141.964844 216.039062 141.523438 215.960938 141.335938 C 215.8125 141.1875 215.632812 141.121094 215.410156 141.046875 C 214.164062 141.046875 214.085938 142.472656 214.164062 143.023438 C 214.050781 143.136719 213.976562 145.660156 215.699219 146.390625 C 218.007812 147.449219 222.289062 146.980469 222.113281 143.316406 C 222.113281 142.988281 222 141.890625 222 141.589844 C 221.773438 141.066406 221.371094 140.839844 220.929688 140.914062 Z M 220.929688 140.914062 " fill-opacity="1" fill-rule="nonzero"/><path fill="#ffffff" d="M 144.214844 141.683594 C 143.925781 141.648438 143.558594 141.757812 143.117188 142.011719 C 141.101562 143.109375 140.335938 146.371094 141.582031 148.238281 C 142.753906 149.925781 144.617188 149.296875 144.882812 149.296875 C 146.859375 149.550781 148.03125 145.59375 148.03125 145.59375 C 148.03125 145.59375 148.105469 144.460938 145.761719 146.578125 C 144.742188 146.765625 144.628906 146.390625 144.375 145.847656 C 144.1875 144.824219 144.226562 143.792969 144.703125 142.734375 C 144.910156 142.125 144.695312 141.722656 144.214844 141.683594 Z M 144.214844 141.683594 " fill-opacity="1" fill-rule="nonzero"/><path fill="#ffffff" d="M 252.683594 142.199219 C 251.585938 142.125 250.378906 142.855469 250.085938 144.394531 C 250.085938 145.3125 250.492188 145.78125 250.414062 146.625 C 250.265625 147.101562 249.796875 147.394531 248.652344 146.839844 C 248.804688 146.652344 247.882812 145.378906 247.882812 145.378906 C 247.003906 144.824219 245.792969 145.414062 245.023438 145.894531 C 244.585938 146.699219 244.257812 148.023438 244.734375 149.410156 C 246.054688 151.789062 250.480469 155.859375 252.570312 155.886719 C 252.609375 153.730469 252.824219 150.871094 252.9375 149.109375 C 252.976562 148.414062 253.152344 147.683594 253.78125 147.496094 C 254.4375 147.347656 255.570312 148.152344 255.570312 147.460938 C 255.460938 146.101562 255.167969 144.054688 254.398438 143.101562 C 254.007812 142.527344 253.378906 142.238281 252.683594 142.199219 Z M 252.683594 142.199219 " fill-opacity="1" fill-rule="nonzero"/><path fill="#ffffff" d="M 162.890625 149.671875 C 162.851562 149.710938 162.816406 149.710938 162.816406 149.746094 C 162.777344 149.746094 162.777344 149.785156 162.742188 149.785156 C 162.523438 149.933594 162.261719 150.335938 161.679688 150.742188 C 160.695312 151.875 160.507812 152.679688 160.546875 154.949219 C 160.621094 155.164062 162.449219 160.257812 163.988281 163.847656 C 165.046875 167.550781 166.003906 171.835938 165.308594 175.855469 C 162.851562 181.164062 157.949219 185.925781 153.1875 188.53125 C 150.769531 189.300781 148.6875 189.046875 148.097656 188.492188 C 146.710938 187.539062 146.671875 185.898438 146.738281 185.597656 L 146.773438 185.558594 C 150.769531 182.773438 155.34375 180.507812 158.933594 172.960938 C 159.992188 170.101562 160.320312 168.347656 159.261719 163.914062 C 158.859375 162.226562 158.34375 160.875 157.210938 159.703125 L 157.210938 159.664062 C 157.902344 159.335938 159.664062 160.648438 159.957031 159.851562 C 159.515625 157.726562 158.089844 154.875 156.476562 153.402344 C 155.054688 152.117188 153.476562 151.976562 152.195312 153.148438 C 150.695312 153.957031 150.402344 156.882812 151.097656 159.488281 C 151.902344 161.429688 154.03125 161.757812 155.53125 165.675781 C 155.570312 165.929688 156.046875 168.609375 155.277344 169.667969 C 154.660156 171.609375 146.710938 177.871094 146.15625 178.238281 C 146.15625 178.273438 146.117188 178.273438 146.117188 178.273438 L 146.082031 178.3125 C 146.082031 178.3125 146.082031 178.3125 146.042969 178.3125 L 146.042969 178.351562 L 146.007812 178.351562 L 145.96875 178.3125 L 145.96875 178.273438 C 145.929688 178.085938 145.96875 177.722656 145.96875 177.066406 C 145.894531 175.894531 146.410156 173.222656 146.371094 172.78125 L 146.335938 172.742188 C 143.699219 174.429688 142.820312 179.625 142.339844 181.164062 C 135.710938 185.738281 128.128906 189.179688 123.777344 193.835938 C 121.546875 197.390625 139.414062 189.769531 141.507812 188.859375 L 141.542969 188.898438 C 141.945312 189.335938 141.984375 190.875 143.15625 192.226562 C 145.023438 194.757812 148.976562 196.292969 152.820312 195.335938 C 159.273438 192.992188 162.964844 188.597656 166.734375 183.730469 C 167.289062 182.960938 168.121094 182.34375 168.929688 182.960938 C 171.523438 188.785156 178.996094 192.890625 188.699219 193.320312 C 190.929688 190.613281 189.871094 189.253906 188.953125 188.710938 C 188.699219 188.492188 184.152344 186.730469 183.421875 184.976562 C 182.980469 183.328125 184.078125 181.902344 186.242188 180.804688 C 192.429688 180.039062 198.554688 179.230469 204.476562 177.328125 C 204.554688 175.3125 205.726562 172.351562 206.492188 171.066406 C 207.046875 170.148438 207.375 170.082031 207.515625 169.96875 C 207.515625 169.96875 207.515625 169.929688 207.554688 169.929688 L 207.554688 169.894531 L 207.589844 169.894531 L 207.589844 169.855469 C 207.589844 169.820312 207.589844 169.742188 207.554688 169.667969 L 206.570312 169.078125 L 186.722656 169.003906 C 186.46875 168.890625 186.28125 168.816406 186.167969 168.710938 L 186.132812 168.675781 C 186.132812 168.675781 186.132812 168.675781 186.132812 168.636719 L 186.09375 168.636719 L 186.09375 168.601562 L 186.054688 168.5625 L 186.054688 168.375 C 186.054688 168.375 186.054688 168.335938 186.09375 168.335938 C 186.167969 168.1875 186.421875 168.085938 186.710938 167.972656 C 191.4375 167.316406 199.855469 165.917969 200.410156 157.828125 C 200.335938 153.617188 198.617188 150.871094 193.453125 150.101562 C 189.648438 150.394531 186.9375 154.058594 187.378906 158.117188 C 187.191406 159.214844 187.742188 161.34375 186.609375 161.597656 C 179.324219 162.253906 171.375 166.835938 171.085938 170.089844 L 171.046875 170.128906 L 170.972656 170.128906 L 170.933594 170.164062 L 170.867188 170.164062 C 170.832031 170.164062 170.832031 170.164062 170.832031 170.164062 C 170.792969 170.164062 170.757812 170.128906 170.757812 170.128906 C 170.277344 170.015625 169.660156 169.210938 169.773438 168.113281 C 169.480469 162.46875 167.644531 156.066406 164.757812 151.117188 C 163.734375 150.09375 163.292969 149.691406 162.992188 149.652344 L 162.957031 149.652344 C 162.964844 149.671875 162.929688 149.671875 162.890625 149.671875 L 162.851562 149.671875 C 162.929688 149.671875 162.890625 149.671875 162.890625 149.671875 Z M 162.890625 149.671875 " fill-opacity="1" fill-rule="nonzero"/><path fill="#ffffff" d="M 181.894531 152.671875 C 181.492188 152.746094 181.085938 153.074219 180.9375 153.628906 C 180.824219 153.992188 181.125 154.613281 180.75 154.800781 C 180.5625 154.988281 179.832031 154.875 179.867188 153.84375 C 179.867188 153.554688 179.617188 153.1875 179.464844 152.960938 C 179.351562 152.886719 179.25 152.851562 178.988281 152.851562 C 178.660156 152.851562 178.660156 152.960938 178.472656 153.214844 C 178.398438 153.46875 178.285156 153.769531 178.285156 154.058594 C 178.246094 154.425781 178.132812 154.574219 177.882812 154.613281 C 177.554688 154.613281 177.628906 154.648438 177.402344 154.5 C 177.253906 154.3125 177.074219 154.285156 177.074219 153.984375 C 177.074219 153.730469 177 153.289062 176.925781 153.101562 C 176.8125 152.914062 176.597656 152.851562 176.335938 152.8125 C 175.085938 152.8125 175.011719 154.238281 175.085938 154.753906 C 175.011719 154.867188 174.9375 157.425781 176.664062 158.117188 C 178.929688 159.214844 184.386719 158.558594 183.039062 155.042969 C 183.039062 154.714844 182.960938 153.617188 182.925781 153.320312 C 182.738281 152.820312 182.296875 152.597656 181.894531 152.671875 Z M 181.894531 152.671875 " fill-opacity="1" fill-rule="nonzero"/><path fill="#ffffff" d="M 258.542969 155.820312 C 258.507812 155.785156 258.429688 155.785156 258.355469 155.820312 C 258.355469 155.820312 247.773438 163.367188 247.519531 163.621094 C 246.460938 164.578125 246.964844 167.832031 247.519531 167.464844 C 248.25 167.757812 258.910156 160.507812 258.722656 159.664062 C 259.199219 159.703125 259.425781 155.972656 258.542969 155.820312 Z M 258.542969 155.820312 " fill-opacity="1" fill-rule="nonzero"/><path fill="#ffffff" d="M 191.898438 156.917969 C 192.335938 156.882812 192.882812 157.03125 193.433594 157.320312 C 194.242188 157.800781 194.71875 158.492188 194.679688 159.007812 L 194.679688 159.046875 C 194.679688 159.046875 194.644531 159.085938 194.644531 159.121094 L 194.605469 159.160156 L 194.605469 159.195312 L 194.570312 159.234375 C 194.53125 159.273438 194.492188 159.308594 194.457031 159.347656 C 194.089844 159.710938 193.210938 159.675781 192.367188 159.195312 C 191.597656 158.71875 191.117188 158.023438 191.15625 157.546875 C 191.15625 157.507812 191.195312 157.507812 191.195312 157.472656 C 191.195312 157.398438 191.230469 157.359375 191.230469 157.285156 C 191.269531 157.285156 191.269531 157.246094 191.269531 157.210938 L 191.304688 157.210938 C 191.304688 157.171875 191.34375 157.132812 191.382812 157.132812 C 191.53125 157.03125 191.710938 156.957031 191.898438 156.917969 Z M 191.898438 156.917969 " fill-opacity="1" fill-rule="nonzero"/><path fill="#ffffff" d="M 99.167969 158.820312 C 93.675781 158.933594 85.660156 166.039062 85.433594 169.960938 C 91.21875 167.175781 96.898438 164.503906 102.796875 161.644531 C 101.839844 160.21875 102.722656 158.933594 99.167969 158.820312 Z M 99.167969 158.820312 " fill-opacity="1" fill-rule="nonzero"/><path fill="#ffffff" d="M 116.933594 161.316406 C 117.488281 161.316406 118.03125 161.570312 118.320312 162.335938 C 118.613281 163.03125 118.359375 163.726562 118.03125 164.101562 L 118.03125 164.136719 C 118.03125 164.136719 118.03125 164.136719 118.03125 164.175781 C 117.777344 164.464844 116.972656 164.324219 116.382812 164.324219 C 115.726562 164.324219 115.359375 164.210938 114.957031 163.632812 C 114.742188 163.011719 115.359375 162.382812 115.613281 161.90625 L 115.648438 161.90625 C 115.648438 161.832031 115.726562 161.792969 115.761719 161.757812 C 115.949219 161.570312 116.316406 161.390625 116.71875 161.351562 C 116.785156 161.316406 116.859375 161.277344 116.933594 161.316406 Z M 116.933594 161.316406 " fill-opacity="1" fill-rule="nonzero"/><path fill="#ffffff" d="M 256.492188 163.480469 C 255.507812 163.59375 254.585938 164.539062 255.027344 166.011719 C 254.738281 166.894531 256.351562 169.894531 256.753906 171.507812 C 257.117188 172.640625 256.273438 175.902344 257.042969 176.230469 C 257.738281 176.632812 259.640625 174.328125 259.574219 171.429688 C 259.789062 169.96875 259.058594 164.476562 257.15625 163.554688 C 256.929688 163.480469 256.714844 163.445312 256.492188 163.480469 Z M 256.492188 163.480469 " fill-opacity="1" fill-rule="nonzero"/><path fill="#ffffff" d="M 139.527344 164.980469 C 138.648438 165.019531 137.914062 165.496094 138.242188 166.707031 C 138.167969 167.550781 140.664062 168.609375 140.804688 170.664062 C 141.132812 171.46875 140.25 174.140625 140.992188 174.394531 C 141.683594 174.683594 142.601562 172.566406 142.96875 170.585938 C 143.15625 169.492188 142.125 165.710938 140.335938 165.054688 C 140.070312 164.980469 139.78125 164.945312 139.527344 164.980469 Z M 139.527344 164.980469 " fill-opacity="1" fill-rule="nonzero"/><path fill="#ffffff" d="M 174.648438 169.773438 C 174.683594 169.773438 174.757812 169.773438 174.835938 169.773438 C 174.835938 169.773438 174.835938 169.773438 174.871094 169.773438 C 177.027344 170.363281 180.289062 170.429688 183.074219 170.726562 C 185.34375 170.878906 186.476562 172.632812 184.359375 173.398438 C 182.230469 174.132812 180.226562 174.683594 180.226562 177.722656 C 180.476562 179.222656 180.414062 180.027344 180.1875 180.394531 C 180.1875 180.429688 180.148438 180.46875 180.113281 180.46875 L 180.113281 180.507812 L 180.074219 180.507812 L 180.074219 180.542969 L 180.039062 180.542969 L 180 180.582031 C 179.960938 180.582031 179.925781 180.617188 179.886719 180.617188 C 179.886719 180.617188 179.8125 180.617188 179.8125 180.65625 C 179.296875 180.730469 178.566406 180.253906 178.023438 179.960938 C 176.738281 179.007812 173.082031 176.773438 172.566406 171.910156 C 172.480469 170.804688 173.324219 169.847656 174.648438 169.773438 Z M 174.648438 169.773438 " fill-opacity="1" fill-rule="nonzero"/><path fill="#ffffff" d="M 88.875 173.511719 C 88.726562 173.511719 88.433594 173.914062 88.105469 174.394531 C 84.84375 179.523438 84.589844 187.210938 86.34375 189.515625 C 87.300781 190.574219 88.875 191.054688 90.007812 190.726562 C 92.0625 189.84375 92.945312 185.710938 92.464844 184.210938 C 91.773438 183.148438 91.21875 183 90.5625 183.882812 C 89.136719 186.816406 88.546875 184.835938 88.40625 183.1875 C 88.191406 180.113281 88.480469 177.289062 88.847656 175.058594 C 88.988281 173.914062 88.988281 173.511719 88.875 173.511719 Z M 88.875 173.511719 " fill-opacity="1" fill-rule="nonzero"/><path fill="#ffffff" d="M 198.964844 180.253906 C 198.710938 180.253906 198.449219 180.289062 198.195312 180.402344 C 198.160156 180.402344 195.890625 181.941406 195.160156 183 C 194.71875 183.367188 194.757812 183.65625 194.90625 184.246094 C 195.234375 185.015625 195.863281 184.800781 196.554688 184.398438 C 197.476562 184.285156 197.914062 184.875 197.839844 186.007812 C 197.4375 187.367188 198.027344 187.875 198.027344 187.988281 C 198.027344 188.0625 198.945312 188.832031 199.96875 188.203125 C 202.164062 187.359375 203.523438 186.554688 206.597656 185.898438 C 207.402344 185.859375 207.367188 183.703125 206.082031 183.628906 C 204.429688 183.742188 202.894531 183.816406 201.207031 185.128906 C 200.183594 185.34375 200.035156 184.726562 199.78125 184.171875 C 199.527344 182.785156 200.371094 181.789062 200.222656 180.769531 C 200.242188 180.796875 199.660156 180.28125 198.964844 180.253906 Z M 198.964844 180.253906 " fill-opacity="1" fill-rule="nonzero"/><path fill="#ffffff" d="M 269.417969 182.886719 C 269.015625 182.886719 268.613281 182.960938 267.992188 183 C 267.300781 183.148438 267.074219 183.441406 266.933594 184.285156 C 267.007812 185.492188 267.742188 185.457031 268.546875 185.933594 C 268.988281 186.523438 269.277344 187.03125 268.507812 187.988281 C 267.777344 188.644531 267.226562 189.007812 266.492188 189.675781 C 266.164062 190.292969 265.941406 191.175781 267.007812 191.464844 C 268.949219 192.019531 273.488281 189.085938 273.488281 189.007812 C 274.21875 188.457031 273.964844 187.433594 273.929688 187.433594 C 273.488281 186.917969 272.539062 187.21875 271.875 187.144531 C 271.585938 187.144531 270.554688 186.992188 271.03125 186.121094 C 271.433594 185.53125 271.585938 185.203125 271.835938 184.507812 C 272.164062 183.851562 271.914062 183.414062 270.777344 183.007812 C 270.226562 182.925781 269.820312 182.886719 269.417969 182.886719 Z M 269.417969 182.886719 " fill-opacity="1" fill-rule="nonzero"/><path fill="#ffffff" d="M 246.460938 239.578125 C 246.460938 239.578125 246.460938 239.617188 246.421875 239.617188 C 243.160156 240.421875 243.273438 243.824219 245.363281 245.289062 C 210.9375 245.289062 158.128906 244.734375 146.773438 244.734375 C 140.4375 244.734375 120.402344 243.964844 120.007812 243.964844 C 124.332031 250.265625 130.554688 251.550781 138.683594 251.652344 C 153.992188 251.652344 224.820312 251.464844 244.996094 251.464844 C 243.570312 253.996094 245.148438 258.09375 246.242188 258.863281 C 246.28125 258.863281 246.320312 258.898438 246.355469 258.898438 C 246.394531 258.898438 246.429688 258.9375 246.46875 258.9375 C 246.507812 258.9375 246.542969 258.9375 246.542969 258.9375 C 247.867188 259.265625 248.445312 258.320312 248.925781 257.578125 C 251.082031 257.765625 263.242188 257.945312 264.375 257.578125 L 264.375 257.539062 C 265.144531 258.636719 265.875 259.695312 267.335938 259.519531 C 269.832031 259.003906 271.808594 258.710938 271.875 253.621094 C 271.875 253.621094 271.621094 244.902344 265.902344 245.457031 C 264.582031 245.671875 260.773438 246.046875 260.773438 246.046875 C 256.378906 245.53125 253.191406 245.457031 248.25 245.277344 C 248.726562 244.6875 249.496094 242.382812 248.539062 241.507812 C 248.289062 241.292969 247.882812 241.179688 247.367188 241.21875 L 247.292969 241.21875 C 247.257812 241.21875 247.21875 241.21875 247.21875 241.179688 C 247.179688 241.179688 247.144531 241.144531 247.144531 241.105469 L 247.105469 241.070312 C 246.851562 240.703125 246.703125 239.820312 246.554688 239.605469 L 246.515625 239.570312 L 246.476562 239.53125 L 246.441406 239.53125 C 246.460938 239.578125 246.460938 239.578125 246.460938 239.578125 Z M 246.460938 239.578125 " fill-opacity="1" fill-rule="nonzero"/><path fill="#ffffff" d="M 242.324219 254.914062 C 242.324219 254.914062 242.324219 254.914062 242.363281 254.914062 C 247.378906 255.167969 252.101562 254.992188 257.117188 255.207031 C 257.925781 255.898438 257.523438 257.4375 256.96875 257.738281 C 256.96875 257.738281 256.929688 257.773438 256.894531 257.773438 C 256.894531 257.773438 256.855469 257.773438 256.820312 257.773438 L 256.78125 257.773438 C 255.132812 257.738281 254.183594 257.699219 252.570312 257.664062 C 252.570312 257.550781 252.535156 257.476562 252.535156 257.410156 C 252.132812 256.273438 249.347656 256.351562 248.652344 257.222656 C 248.652344 257.257812 248.652344 257.257812 248.617188 257.296875 C 248.617188 257.296875 248.617188 257.335938 248.578125 257.335938 C 248.578125 257.371094 248.578125 257.410156 248.539062 257.445312 C 248.539062 257.484375 248.539062 257.523438 248.539062 257.558594 C 248.539062 257.597656 248.503906 257.671875 248.503906 257.710938 C 246.308594 257.960938 244.332031 257.632812 242.128906 257.558594 C 241.480469 256.753906 241.554688 255.28125 242.324219 254.914062 Z M 242.324219 254.914062 " fill-opacity="1" fill-rule="nonzero"/></svg>