<svg xmlns="http://www.w3.org/2000/svg" xmlns:xlink="http://www.w3.org/1999/xlink" width="500" zoomAndPan="magnify" viewBox="0 0 375 374.999991" height="500" preserveAspectRatio="xMidYMid meet" version="1.0"><defs><clipPath id="08d94aa139"><path d="M 374.976562 187.5 C 374.976562 291.039062 291.039062 374.96875 187.5 374.96875 C 83.960938 374.96875 0.0234375 291.039062 0.0234375 187.5 C 0.0234375 83.960938 83.960938 0.03125 187.5 0.03125 C 291.039062 0.03125 374.976562 83.960938 374.976562 187.5 Z M 374.976562 187.5 " clip-rule="nonzero"/></clipPath><clipPath id="bf03676307"><path d="M 257 0 L 375 0 L 375 125 L 257 125 Z M 257 0 " clip-rule="nonzero"/></clipPath><clipPath id="7f066bb79e"><path d="M 374.976562 187.5 C 374.976562 291.039062 291.039062 374.96875 187.5 374.96875 C 83.960938 374.96875 0.0234375 291.039062 0.0234375 187.5 C 0.0234375 83.960938 83.960938 0.03125 187.5 0.03125 C 291.039062 0.03125 374.976562 83.960938 374.976562 187.5 Z M 374.976562 187.5 " clip-rule="nonzero"/></clipPath><clipPath id="6aa0a08198"><path d="M 0 0 L 64 0 L 64 125 L 0 125 Z M 0 0 " clip-rule="nonzero"/></clipPath><clipPath id="f589f4e7ce"><path d="M 374.976562 187.5 C 374.976562 291.039062 291.039062 374.96875 187.5 374.96875 C 83.960938 374.96875 0.0234375 291.039062 0.0234375 187.5 C 0.0234375 83.960938 83.960938 0.03125 187.5 0.03125 C 291.039062 0.03125 374.976562 83.960938 374.976562 187.5 Z M 374.976562 187.5 " clip-rule="nonzero"/></clipPath><clipPath id="f873bb066c"><path d="M 311 250 L 375 250 L 375 375 L 311 375 Z M 311 250 " clip-rule="nonzero"/></clipPath><clipPath id="bfe552e6de"><path d="M 374.976562 187.5 C 374.976562 291.039062 291.039062 374.96875 187.5 374.96875 C 83.960938 374.96875 0.0234375 291.039062 0.0234375 187.5 C 0.0234375 83.960938 83.960938 0.03125 187.5 0.03125 C 291.039062 0.03125 374.976562 83.960938 374.976562 187.5 Z M 374.976562 187.5 " clip-rule="nonzero"/></clipPath><clipPath id="d4577e831d"><path d="M 0 250 L 118 250 L 118 375 L 0 375 Z M 0 250 " clip-rule="nonzero"/></clipPath><clipPath id="745762cec6"><path d="M 374.976562 187.5 C 374.976562 291.039062 291.039062 374.96875 187.5 374.96875 C 83.960938 374.96875 0.0234375 291.039062 0.0234375 187.5 C 0.0234375 83.960938 83.960938 0.03125 187.5 0.03125 C 291.039062 0.03125 374.976562 83.960938 374.976562 187.5 Z M 374.976562 187.5 " clip-rule="nonzero"/></clipPath></defs><g clip-path="url(#08d94aa139)"><path fill="#012169" d="M 561.648438 374.796875 L -186.648438 374.796875 L -186.648438 0.203125 L 561.648438 0.203125 L 561.648438 374.796875 " fill-opacity="1" fill-rule="nonzero"/><path fill="#ffffff" d="M 561.910156 0.203125 L 474.996094 0.203125 L 249.988281 114.488281 L 249.988281 0.203125 L 125.011719 0.203125 L 125.011719 114.488281 L -99.996094 0.203125 L -186.917969 0.203125 L -186.917969 41.480469 L -22.972656 124.652344 L -186.917969 124.652344 L -186.917969 250.347656 L -23.773438 250.347656 L -186.917969 331.914062 L -186.648438 374.96875 L -103.203125 374.96875 L 124.652344 262.917969 L 124.652344 374.617188 L 250.347656 374.617188 L 250.347656 262.917969 L 478.203125 374.96875 L 561.648438 374.96875 L 561.910156 331.914062 L 398.773438 250.347656 L 561.910156 250.347656 L 561.910156 124.652344 L 397.972656 124.652344 L 561.910156 41.480469 L 561.910156 0.203125 " fill-opacity="1" fill-rule="nonzero"/><path fill="#c8102e" d="M 224.675781 0.03125 L 150.324219 0.03125 L 150.324219 150.324219 L -186.917969 150.324219 L -186.917969 224.675781 L 150.324219 224.675781 L 150.324219 374.96875 L 224.675781 374.96875 L 224.675781 224.675781 L 561.910156 224.675781 L 561.910156 150.324219 L 224.675781 150.324219 L 224.675781 0.03125 " fill-opacity="1" fill-rule="nonzero"/></g><g clip-path="url(#bf03676307)"><g clip-path="url(#7f066bb79e)"><path fill="#c8102e" d="M 561.910156 0.203125 L 505.753906 0.203125 L 257.035156 124.652344 L 313.730469 124.652344 L 561.910156 0.203125 " fill-opacity="1" fill-rule="nonzero"/></g></g><g clip-path="url(#6aa0a08198)"><g clip-path="url(#f589f4e7ce)"><path fill="#c8102e" d="M 63.40625 124.652344 L -186.648438 0.203125 L -186.917969 28.234375 L 6.40625 124.652344 L 63.40625 124.652344 " fill-opacity="1" fill-rule="nonzero"/></g></g><g clip-path="url(#f873bb066c)"><g clip-path="url(#bfe552e6de)"><path fill="#c8102e" d="M 311.59375 250.347656 L 561.648438 374.796875 L 561.910156 346.765625 L 368.59375 250.347656 L 311.59375 250.347656 " fill-opacity="1" fill-rule="nonzero"/></g></g><g clip-path="url(#d4577e831d)"><g clip-path="url(#745762cec6)"><path fill="#c8102e" d="M -186.917969 374.796875 L -130.753906 374.796875 L 117.964844 250.347656 L 61.269531 250.347656 L -186.917969 374.796875 " fill-opacity="1" fill-rule="nonzero"/></g></g></svg>