<svg xmlns="http://www.w3.org/2000/svg" xmlns:xlink="http://www.w3.org/1999/xlink" width="500" zoomAndPan="magnify" viewBox="0 0 375 374.999991" height="500" preserveAspectRatio="xMidYMid meet" version="1.0"><path fill="#ffffff" d="M 375 187.5 C 375 291.054688 291.054688 375 187.5 375 C 83.945312 375 0 291.054688 0 187.5 C 0 83.945312 83.945312 0 187.5 0 C 291.054688 0 375 83.945312 375 187.5 Z M 375 187.5 " fill-opacity="1" fill-rule="evenodd"/><path fill="#e94b35" d="M 286.335938 28.117188 L 187.5 28.117188 L 187.5 0 C 223.753906 0 257.609375 10.292969 286.335938 28.117188 Z M 322.917969 57.820312 C 331.175781 66.445312 338.621094 75.847656 345.132812 85.9375 L 187.5 85.9375 L 187.5 57.820312 Z M 360.71875 115.640625 C 364.5 124.675781 367.554688 134.074219 369.871094 143.757812 L 187.5 143.757812 L 187.5 115.640625 Z M 374.472656 173.421875 C 374.835938 178.058594 375 182.78125 375 187.5 C 375 192.21875 374.835938 196.898438 374.472656 201.578125 L 187.5 201.578125 L 187.5 173.421875 Z M 5.128906 231.242188 L 369.871094 231.242188 C 367.554688 240.925781 364.5 250.324219 360.71875 259.359375 L 14.28125 259.359375 C 10.496094 250.324219 7.445312 240.925781 5.128906 231.242188 Z M 29.867188 289.0625 L 345.132812 289.0625 C 338.621094 299.152344 331.175781 308.554688 322.917969 317.179688 L 52.082031 317.179688 C 43.824219 308.554688 36.378906 299.152344 29.867188 289.0625 Z M 88.664062 346.882812 L 286.335938 346.882812 C 257.773438 364.625 224.121094 374.878906 188.027344 375 L 186.972656 375 C 150.878906 374.878906 117.226562 364.625 88.664062 346.882812 Z M 88.664062 346.882812 " fill-opacity="1" fill-rule="evenodd"/><path fill="#227fbb" d="M 187.5 0 L 187.5 201.578125 L 0.527344 201.578125 C 0.164062 196.941406 0 192.21875 0 187.5 C 0 83.945312 83.945312 0 187.5 0 Z M 187.5 0 " fill-opacity="1" fill-rule="evenodd"/><path fill="#ffffff" d="M 148.4375 42.96875 L 143.839844 45.371094 L 144.734375 40.285156 L 140.992188 36.660156 L 146.160156 35.886719 L 148.4375 31.25 L 150.714844 35.886719 L 155.882812 36.660156 L 152.140625 40.285156 L 153.035156 45.371094 Z M 148.4375 42.96875 " fill-opacity="1" fill-rule="evenodd"/><path fill="#ffffff" d="M 117.1875 42.96875 L 112.589844 45.371094 L 113.484375 40.285156 L 109.742188 36.660156 L 114.910156 35.886719 L 117.1875 31.25 L 119.464844 35.886719 L 124.632812 36.660156 L 120.890625 40.285156 L 121.785156 45.371094 Z M 117.1875 42.96875 " fill-opacity="1" fill-rule="evenodd"/><path fill="#ffffff" d="M 164.0625 19.53125 L 159.464844 21.933594 L 160.359375 16.847656 L 156.617188 13.222656 L 161.785156 12.449219 L 164.0625 7.8125 L 166.339844 12.449219 L 171.507812 13.222656 L 167.765625 16.847656 L 168.660156 21.933594 Z M 164.0625 19.53125 " fill-opacity="1" fill-rule="evenodd"/><path fill="#ffffff" d="M 70.3125 66.40625 L 65.714844 68.808594 L 66.609375 63.722656 L 62.867188 60.097656 L 68.035156 59.324219 L 70.3125 54.6875 L 72.589844 59.324219 L 77.757812 60.097656 L 74.015625 63.722656 L 74.910156 68.808594 Z M 70.3125 66.40625 " fill-opacity="1" fill-rule="evenodd"/><path fill="#ffffff" d="M 101.5625 66.40625 L 96.964844 68.808594 L 97.859375 63.722656 L 94.117188 60.097656 L 99.285156 59.324219 L 101.5625 54.6875 L 103.839844 59.324219 L 109.007812 60.097656 L 105.265625 63.722656 L 106.160156 68.808594 Z M 101.5625 66.40625 " fill-opacity="1" fill-rule="evenodd"/><path fill="#ffffff" d="M 132.8125 66.40625 L 128.214844 68.808594 L 129.109375 63.722656 L 125.367188 60.097656 L 130.535156 59.324219 L 132.8125 54.6875 L 135.089844 59.324219 L 140.257812 60.097656 L 136.515625 63.722656 L 137.410156 68.808594 Z M 132.8125 66.40625 " fill-opacity="1" fill-rule="evenodd"/><path fill="#ffffff" d="M 132.8125 66.40625 L 128.214844 68.808594 L 129.109375 63.722656 L 125.367188 60.097656 L 130.535156 59.324219 L 132.8125 54.6875 L 135.089844 59.324219 L 140.257812 60.097656 L 136.515625 63.722656 L 137.410156 68.808594 Z M 132.8125 66.40625 " fill-opacity="1" fill-rule="evenodd"/><path fill="#ffffff" d="M 148.4375 89.84375 L 143.839844 92.246094 L 144.734375 87.15625 L 140.992188 83.535156 L 146.160156 82.761719 L 148.4375 78.125 L 150.714844 82.761719 L 155.882812 83.535156 L 152.140625 87.15625 L 153.035156 92.246094 Z M 148.4375 89.84375 " fill-opacity="1" fill-rule="evenodd"/><path fill="#ffffff" d="M 54.6875 89.84375 L 50.089844 92.246094 L 50.984375 87.15625 L 47.242188 83.535156 L 52.410156 82.761719 L 54.6875 78.125 L 56.964844 82.761719 L 62.132812 83.535156 L 58.390625 87.15625 L 59.285156 92.246094 Z M 54.6875 89.84375 " fill-opacity="1" fill-rule="evenodd"/><path fill="#ffffff" d="M 85.9375 89.84375 L 81.339844 92.246094 L 82.234375 87.15625 L 78.492188 83.535156 L 83.660156 82.761719 L 85.9375 78.125 L 88.214844 82.761719 L 93.382812 83.535156 L 89.640625 87.15625 L 90.535156 92.246094 Z M 85.9375 89.84375 " fill-opacity="1" fill-rule="evenodd"/><path fill="#ffffff" d="M 117.1875 89.84375 L 112.589844 92.246094 L 113.484375 87.15625 L 109.742188 83.535156 L 114.910156 82.761719 L 117.1875 78.125 L 119.464844 82.761719 L 124.632812 83.535156 L 120.890625 87.15625 L 121.785156 92.246094 Z M 117.1875 89.84375 " fill-opacity="1" fill-rule="evenodd"/><path fill="#ffffff" d="M 164.0625 66.40625 L 159.464844 68.808594 L 160.359375 63.722656 L 156.617188 60.097656 L 161.785156 59.324219 L 164.0625 54.6875 L 166.339844 59.324219 L 171.507812 60.097656 L 167.765625 63.722656 L 168.660156 68.808594 Z M 164.0625 66.40625 " fill-opacity="1" fill-rule="evenodd"/><path fill="#ffffff" d="M 39.0625 113.28125 L 34.464844 115.683594 L 35.359375 110.597656 L 31.617188 106.972656 L 36.785156 106.199219 L 39.0625 101.5625 L 41.339844 106.199219 L 46.507812 106.972656 L 42.765625 110.597656 L 43.660156 115.683594 Z M 39.0625 113.28125 " fill-opacity="1" fill-rule="evenodd"/><path fill="#ffffff" d="M 70.3125 113.28125 L 65.714844 115.683594 L 66.609375 110.597656 L 62.867188 106.972656 L 68.035156 106.199219 L 70.3125 101.5625 L 72.589844 106.199219 L 77.757812 106.972656 L 74.015625 110.597656 L 74.910156 115.683594 Z M 70.3125 113.28125 " fill-opacity="1" fill-rule="evenodd"/><path fill="#ffffff" d="M 101.5625 113.28125 L 96.964844 115.683594 L 97.859375 110.597656 L 94.117188 106.972656 L 99.285156 106.199219 L 101.5625 101.5625 L 103.839844 106.199219 L 109.007812 106.972656 L 105.265625 110.597656 L 106.160156 115.683594 Z M 101.5625 113.28125 " fill-opacity="1" fill-rule="evenodd"/><path fill="#ffffff" d="M 132.8125 113.28125 L 128.214844 115.683594 L 129.109375 110.597656 L 125.367188 106.972656 L 130.535156 106.199219 L 132.8125 101.5625 L 135.089844 106.199219 L 140.257812 106.972656 L 136.515625 110.597656 L 137.410156 115.683594 Z M 132.8125 113.28125 " fill-opacity="1" fill-rule="evenodd"/><path fill="#ffffff" d="M 132.8125 113.28125 L 128.214844 115.683594 L 129.109375 110.597656 L 125.367188 106.972656 L 130.535156 106.199219 L 132.8125 101.5625 L 135.089844 106.199219 L 140.257812 106.972656 L 136.515625 110.597656 L 137.410156 115.683594 Z M 132.8125 113.28125 " fill-opacity="1" fill-rule="evenodd"/><path fill="#ffffff" d="M 148.4375 136.71875 L 143.839844 139.121094 L 144.734375 134.035156 L 140.992188 130.410156 L 146.160156 129.636719 L 148.4375 125 L 150.714844 129.636719 L 155.882812 130.410156 L 152.140625 134.035156 L 153.035156 139.121094 Z M 148.4375 136.71875 " fill-opacity="1" fill-rule="evenodd"/><path fill="#ffffff" d="M 23.4375 136.71875 L 18.839844 139.121094 L 19.734375 134.035156 L 15.992188 130.410156 L 21.160156 129.636719 L 23.4375 125 L 25.714844 129.636719 L 30.882812 130.410156 L 27.140625 134.035156 L 28.035156 139.121094 Z M 23.4375 136.71875 " fill-opacity="1" fill-rule="evenodd"/><path fill="#ffffff" d="M 54.6875 136.71875 L 50.089844 139.121094 L 50.984375 134.035156 L 47.242188 130.410156 L 52.410156 129.636719 L 54.6875 125 L 56.964844 129.636719 L 62.132812 130.410156 L 58.390625 134.035156 L 59.285156 139.121094 Z M 54.6875 136.71875 " fill-opacity="1" fill-rule="evenodd"/><path fill="#ffffff" d="M 85.9375 136.71875 L 81.339844 139.121094 L 82.234375 134.035156 L 78.492188 130.410156 L 83.660156 129.636719 L 85.9375 125 L 88.214844 129.636719 L 93.382812 130.410156 L 89.640625 134.035156 L 90.535156 139.121094 Z M 85.9375 136.71875 " fill-opacity="1" fill-rule="evenodd"/><path fill="#ffffff" d="M 117.1875 136.71875 L 112.589844 139.121094 L 113.484375 134.035156 L 109.742188 130.410156 L 114.910156 129.636719 L 117.1875 125 L 119.464844 129.636719 L 124.632812 130.410156 L 120.890625 134.035156 L 121.785156 139.121094 Z M 117.1875 136.71875 " fill-opacity="1" fill-rule="evenodd"/><path fill="#ffffff" d="M 164.0625 113.28125 L 159.464844 115.683594 L 160.359375 110.597656 L 156.617188 106.972656 L 161.785156 106.199219 L 164.0625 101.5625 L 166.339844 106.199219 L 171.507812 106.972656 L 167.765625 110.597656 L 168.660156 115.683594 Z M 164.0625 113.28125 " fill-opacity="1" fill-rule="evenodd"/><path fill="#ffffff" d="M 39.0625 160.15625 L 34.464844 162.558594 L 35.359375 157.472656 L 31.617188 153.847656 L 36.785156 153.074219 L 39.0625 148.4375 L 41.339844 153.074219 L 46.507812 153.847656 L 42.765625 157.472656 L 43.660156 162.558594 Z M 39.0625 160.15625 " fill-opacity="1" fill-rule="evenodd"/><path fill="#ffffff" d="M 70.3125 160.15625 L 65.714844 162.558594 L 66.609375 157.472656 L 62.867188 153.847656 L 68.035156 153.074219 L 70.3125 148.4375 L 72.589844 153.074219 L 77.757812 153.847656 L 74.015625 157.472656 L 74.910156 162.558594 Z M 70.3125 160.15625 " fill-opacity="1" fill-rule="evenodd"/><path fill="#ffffff" d="M 101.5625 160.15625 L 96.964844 162.558594 L 97.859375 157.472656 L 94.117188 153.847656 L 99.285156 153.074219 L 101.5625 148.4375 L 103.839844 153.074219 L 109.007812 153.847656 L 105.265625 157.472656 L 106.160156 162.558594 Z M 101.5625 160.15625 " fill-opacity="1" fill-rule="evenodd"/><path fill="#ffffff" d="M 132.8125 160.15625 L 128.214844 162.558594 L 129.109375 157.472656 L 125.367188 153.847656 L 130.535156 153.074219 L 132.8125 148.4375 L 135.089844 153.074219 L 140.257812 153.847656 L 136.515625 157.472656 L 137.410156 162.558594 Z M 132.8125 160.15625 " fill-opacity="1" fill-rule="evenodd"/><path fill="#ffffff" d="M 132.8125 160.15625 L 128.214844 162.558594 L 129.109375 157.472656 L 125.367188 153.847656 L 130.535156 153.074219 L 132.8125 148.4375 L 135.089844 153.074219 L 140.257812 153.847656 L 136.515625 157.472656 L 137.410156 162.558594 Z M 132.8125 160.15625 " fill-opacity="1" fill-rule="evenodd"/><path fill="#ffffff" d="M 148.4375 183.59375 L 143.839844 185.996094 L 144.734375 180.90625 L 140.992188 177.285156 L 146.160156 176.511719 L 148.4375 171.875 L 150.714844 176.511719 L 155.882812 177.285156 L 152.140625 180.90625 L 153.035156 185.996094 Z M 148.4375 183.59375 " fill-opacity="1" fill-rule="evenodd"/><path fill="#ffffff" d="M 23.4375 183.59375 L 18.839844 185.996094 L 19.734375 180.90625 L 15.992188 177.285156 L 21.160156 176.511719 L 23.4375 171.875 L 25.714844 176.511719 L 30.882812 177.285156 L 27.140625 180.90625 L 28.035156 185.996094 Z M 23.4375 183.59375 " fill-opacity="1" fill-rule="evenodd"/><path fill="#ffffff" d="M 54.6875 183.59375 L 50.089844 185.996094 L 50.984375 180.90625 L 47.242188 177.285156 L 52.410156 176.511719 L 54.6875 171.875 L 56.964844 176.511719 L 62.132812 177.285156 L 58.390625 180.90625 L 59.285156 185.996094 Z M 54.6875 183.59375 " fill-opacity="1" fill-rule="evenodd"/><path fill="#ffffff" d="M 85.9375 183.59375 L 81.339844 185.996094 L 82.234375 180.90625 L 78.492188 177.285156 L 83.660156 176.511719 L 85.9375 171.875 L 88.214844 176.511719 L 93.382812 177.285156 L 89.640625 180.90625 L 90.535156 185.996094 Z M 85.9375 183.59375 " fill-opacity="1" fill-rule="evenodd"/><path fill="#ffffff" d="M 117.1875 183.59375 L 112.589844 185.996094 L 113.484375 180.90625 L 109.742188 177.285156 L 114.910156 176.511719 L 117.1875 171.875 L 119.464844 176.511719 L 124.632812 177.285156 L 120.890625 180.90625 L 121.785156 185.996094 Z M 117.1875 183.59375 " fill-opacity="1" fill-rule="evenodd"/><path fill="#ffffff" d="M 164.0625 160.15625 L 159.464844 162.558594 L 160.359375 157.472656 L 156.617188 153.847656 L 161.785156 153.074219 L 164.0625 148.4375 L 166.339844 153.074219 L 171.507812 153.847656 L 167.765625 157.472656 L 168.660156 162.558594 Z M 164.0625 160.15625 " fill-opacity="1" fill-rule="evenodd"/></svg>