<svg xmlns="http://www.w3.org/2000/svg" xmlns:xlink="http://www.w3.org/1999/xlink" width="500" zoomAndPan="magnify" viewBox="0 0 375 374.999991" height="500" preserveAspectRatio="xMidYMid meet" version="1.0"><defs><clipPath id="ad66a73b59"><path d="M 0 114.109375 L 375 114.109375 L 375 270.738281 L 0 270.738281 Z M 0 114.109375 " clip-rule="nonzero"/></clipPath><clipPath id="a4c1c2e472"><path d="M 14.316406 260.328125 L 360.550781 260.328125 L 360.550781 375 L 14.316406 375 Z M 14.316406 260.328125 " clip-rule="nonzero"/></clipPath></defs><path fill="#ef363c" d="M 346.058594 87.289062 C 338.703125 75.707031 330.023438 64.851562 320.089844 54.914062 C 284.671875 19.5 237.585938 0 187.5 0 C 137.417969 0 90.332031 19.5 54.917969 54.914062 C 44.980469 64.851562 36.300781 75.707031 28.949219 87.289062 C 23.453125 95.949219 18.722656 105.023438 14.746094 114.417969 L 360.257812 114.417969 C 356.277344 105.023438 351.554688 95.949219 346.058594 87.289062 " fill-opacity="1" fill-rule="nonzero"/><g clip-path="url(#ad66a73b59)"><path fill="#f6ed20" d="M 375.003906 187.5 C 375.003906 161.972656 369.914062 137.238281 360.257812 114.417969 L 14.746094 114.417969 C 5.089844 137.238281 0 161.976562 0 187.5 C 0 216.742188 6.675781 244.949219 19.257812 270.421875 L 355.742188 270.421875 C 368.324219 244.949219 375.003906 216.742188 375.003906 187.5 " fill-opacity="1" fill-rule="nonzero"/></g><g clip-path="url(#a4c1c2e472)"><path fill="#ef363c" d="M 14.746094 260.566406 C 17.054688 265.234375 24.046875 279.675781 26.746094 284.148438 C 34.550781 297.070312 43.972656 309.136719 54.917969 320.082031 C 90.328125 355.496094 137.414062 375 187.5 375 C 237.582031 375 284.667969 355.496094 320.085938 320.082031 C 331.03125 309.132812 340.453125 297.070312 348.253906 284.148438 C 350.957031 279.675781 357.949219 265.234375 360.257812 260.566406 L 14.746094 260.566406 " fill-opacity="1" fill-rule="nonzero"/></g></svg>