<svg xmlns="http://www.w3.org/2000/svg" xmlns:xlink="http://www.w3.org/1999/xlink" width="500" zoomAndPan="magnify" viewBox="0 0 375 374.999991" height="500" preserveAspectRatio="xMidYMid meet" version="1.0"><path fill="#e92b2b" d="M 187.5 375 C 291.054688 375 375 291.054688 375 187.5 C 375 83.945312 291.054688 0 187.5 0 C 83.945312 0 0 83.945312 0 187.5 C 0 291.054688 83.945312 375 187.5 375 Z M 187.5 375 " fill-opacity="1" fill-rule="evenodd"/><path fill="#fbfbfb" d="M 261.160156 359.976562 C 238.546875 369.648438 213.648438 375 187.5 375 C 161.351562 375 136.453125 369.648438 113.839844 359.976562 L 113.839844 15.023438 C 136.453125 5.351562 161.351562 0 187.5 0 C 213.648438 0 238.546875 5.351562 261.160156 15.023438 Z M 261.160156 359.976562 " fill-opacity="1" fill-rule="evenodd"/><path fill="#2a2faf" d="M 113.839844 15.019531 C 46.902344 43.644531 0 110.09375 0 187.5 C 0 264.902344 46.902344 331.351562 113.839844 359.976562 Z M 113.839844 15.019531 " fill-opacity="1" fill-rule="evenodd"/></svg>