<svg xmlns="http://www.w3.org/2000/svg" xmlns:xlink="http://www.w3.org/1999/xlink" width="500" zoomAndPan="magnify" viewBox="0 0 375 374.999991" height="500" preserveAspectRatio="xMidYMid meet" version="1.0"><defs><clipPath id="c8589e0726"><path d="M 104.261719 0 L 260.890625 0 L 260.890625 375 L 104.261719 375 Z M 104.261719 0 " clip-rule="nonzero"/></clipPath><clipPath id="c99a2a7110"><path d="M 0 14.316406 L 114.671875 14.316406 L 114.671875 360.550781 L 0 360.550781 Z M 0 14.316406 " clip-rule="nonzero"/></clipPath></defs><path fill="#00834e" d="M 287.710938 346.058594 C 299.292969 338.703125 310.148438 330.023438 320.085938 320.089844 C 355.5 284.671875 375 237.585938 375 187.5 C 375 137.417969 355.5 90.332031 320.085938 54.917969 C 310.148438 44.980469 299.292969 36.300781 287.710938 28.949219 C 279.050781 23.453125 269.976562 18.722656 260.582031 14.746094 L 260.582031 360.257812 C 269.976562 356.277344 279.050781 351.554688 287.710938 346.058594 " fill-opacity="1" fill-rule="nonzero"/><g clip-path="url(#c8589e0726)"><path fill="#f7f7f7" d="M 187.5 375.003906 C 213.027344 375.003906 237.761719 369.914062 260.582031 360.257812 L 260.582031 14.746094 C 237.761719 5.085938 213.023438 0 187.5 0 C 158.257812 0 130.050781 6.675781 104.578125 19.257812 L 104.578125 355.742188 C 130.050781 368.324219 158.257812 375.003906 187.5 375.003906 " fill-opacity="1" fill-rule="nonzero"/></g><g clip-path="url(#c99a2a7110)"><path fill="#00834e" d="M 114.433594 14.746094 C 109.765625 17.054688 95.324219 24.046875 90.851562 26.746094 C 77.929688 34.550781 65.863281 43.972656 54.917969 54.917969 C 19.503906 90.328125 0 137.414062 0 187.5 C 0 237.582031 19.503906 284.667969 54.917969 320.085938 C 65.867188 331.03125 77.929688 340.453125 90.851562 348.253906 C 95.324219 350.957031 109.765625 357.949219 114.433594 360.257812 L 114.433594 14.746094 " fill-opacity="1" fill-rule="nonzero"/></g></svg>