<svg xmlns="http://www.w3.org/2000/svg" xmlns:xlink="http://www.w3.org/1999/xlink" width="500" zoomAndPan="magnify" viewBox="0 0 375 374.999991" height="500" preserveAspectRatio="xMidYMid meet" version="1.0"><path fill="#e71b24" d="M 290.984375 31.136719 C 261.332031 11.457031 225.742188 0 187.5 0 C 149.257812 0 113.667969 11.457031 84.015625 31.136719 C 57.601562 48.636719 35.910156 72.667969 21.164062 100.882812 C 7.636719 126.769531 0 156.257812 0 187.5 C 0 218.742188 7.636719 248.230469 21.164062 274.167969 C 52.457031 334.105469 115.207031 375 187.5 375 C 291.035156 375 375 291.035156 375 187.5 C 375 122.207031 341.636719 64.710938 290.984375 31.136719 Z M 290.984375 31.136719 " fill-opacity="1" fill-rule="nonzero"/><path fill="#f7f700" d="M 102.742188 66.9375 L 113.667969 100.035156 L 148.515625 100.195312 L 120.402344 120.773438 L 131.011719 153.976562 L 102.742188 133.609375 L 74.46875 153.976562 L 85.078125 120.773438 L 56.964844 100.195312 L 91.8125 100.035156 Z M 102.742188 66.9375 " fill-opacity="1" fill-rule="nonzero"/><path fill="#f7f700" d="M 198.320312 138.808594 L 201.289062 147.824219 L 210.839844 147.878906 L 203.148438 153.5 L 206.0625 162.570312 L 198.320312 157.054688 L 190.628906 162.570312 L 193.492188 153.5 L 185.800781 147.878906 L 195.351562 147.824219 Z M 198.320312 138.808594 " fill-opacity="1" fill-rule="nonzero"/><path fill="#f7f700" d="M 189.941406 87.78125 L 198.425781 92.078125 L 205.164062 85.394531 L 203.730469 94.785156 L 212.21875 99.132812 L 202.828125 100.671875 L 201.289062 110.058594 L 196.886719 101.625 L 187.5 103.058594 L 194.183594 96.324219 Z M 189.941406 87.78125 " fill-opacity="1" fill-rule="nonzero"/><path fill="#f7f700" d="M 170.472656 170.738281 L 166.175781 179.226562 L 172.914062 186.015625 L 163.472656 184.582031 L 159.125 193.015625 L 157.585938 183.628906 L 148.195312 182.089844 L 156.628906 177.742188 L 155.199219 168.300781 L 161.988281 175.035156 Z M 170.472656 170.738281 " fill-opacity="1" fill-rule="nonzero"/><path fill="#f7f700" d="M 150.636719 57.390625 L 159.125 61.632812 L 165.859375 54.949219 L 164.425781 64.339844 L 172.914062 68.742188 L 163.472656 70.28125 L 161.988281 79.667969 L 157.585938 71.179688 L 148.195312 72.613281 L 154.878906 65.875 Z M 150.636719 57.390625 " fill-opacity="1" fill-rule="nonzero"/></svg>