<?xml version="1.0" encoding="UTF-8"?>
<!DOCTYPE svg PUBLIC "-//W3C//DTD SVG 1.1//EN" "http://www.w3.org/Graphics/SVG/1.1/DTD/svg11.dtd">
<svg xmlns="http://www.w3.org/2000/svg" version="1.1" width="420px" height="277px" style="shape-rendering:geometricPrecision; text-rendering:geometricPrecision; image-rendering:optimizeQuality; fill-rule:evenodd; clip-rule:evenodd" xmlns:xlink="http://www.w3.org/1999/xlink">
<g><path style="opacity:0.958" fill="#25734b" d="M 275.5,-0.5 C 276.833,-0.5 278.167,-0.5 279.5,-0.5C 283.557,4.58978 287.39,9.92312 291,15.5C 291.667,17.1667 291.667,18.8333 291,20.5C 249.918,54.9095 213.752,93.7428 182.5,137C 193.44,143.273 201.606,152.106 207,163.5C 210.881,170.595 214.215,177.929 217,185.5C 235.53,153.297 257.53,123.63 283,96.5C 318.729,58.2305 358.896,25.8971 403.5,-0.5C 405.167,-0.5 406.833,-0.5 408.5,-0.5C 411.807,5.45859 415.473,11.1253 419.5,16.5C 419.5,17.5 419.5,18.5 419.5,19.5C 383.41,49.4236 351.243,83.0902 323,120.5C 292.672,159.124 266.339,200.457 244,244.5C 228.596,255.42 213.096,266.087 197.5,276.5C 196.167,276.5 194.833,276.5 193.5,276.5C 184.194,250.441 173.027,225.108 160,200.5C 157.066,194.967 153.4,189.967 149,185.5C 136.148,204.526 124.815,224.526 115,245.5C 99.8541,255.98 84.6874,266.313 69.5,276.5C 68.1667,276.5 66.8333,276.5 65.5,276.5C 64.5313,275.691 63.6979,274.691 63,273.5C 52.8881,245.614 40.8881,218.614 27,192.5C 20.0269,182.354 10.8603,175.02 -0.5,170.5C -0.5,168.833 -0.5,167.167 -0.5,165.5C 4.16282,161.363 8.49615,156.863 12.5,152C 20.6375,144.597 29.9709,139.264 40.5,136C 51.8602,134.426 61.0268,138.259 68,147.5C 76.3085,158.445 82.8085,170.445 87.5,183.5C 88.0016,184.521 88.6683,184.688 89.5,184C 127.045,122.678 174.712,70.3444 232.5,27C 246.559,17.3099 260.892,8.1432 275.5,-0.5 Z"/></g>
<g><path style="opacity:1" fill="#fdc052" d="M 275.5,7.5 C 277.785,8.95684 279.618,10.9568 281,13.5C 282.187,15.0444 282.52,16.7111 282,18.5C 241.321,53.6102 205.488,92.9435 174.5,136.5C 170.675,137.265 166.842,137.932 163,138.5C 149.597,145.217 138.264,154.551 129,166.5C 128.333,167.833 128.333,169.167 129,170.5C 134.462,172.807 139.295,175.974 143.5,180C 131.199,199.426 120.032,219.593 110,240.5C 96.414,249.376 82.914,258.376 69.5,267.5C 60.3883,243.605 49.8883,220.271 38,197.5C 31.6939,184.694 22.1939,175.027 9.5,168.5C 8.47899,167.998 8.31232,167.332 9,166.5C 15.2362,159.593 22.0695,153.427 29.5,148C 45.0013,139.377 57.5013,142.544 67,157.5C 75.0488,169.933 81.2155,183.266 85.5,197.5C 86.8333,198.833 88.1667,198.833 89.5,197.5C 135.69,118.643 197.69,55.31 275.5,7.5 Z"/></g>
<g><path style="opacity:1" fill="#fdc052" d="M 403.5,7.5 C 405.785,8.95684 407.618,10.9568 409,13.5C 410.187,15.0444 410.52,16.7111 410,18.5C 393.429,32.0668 377.762,46.7334 363,62.5C 321.992,107.164 285.992,155.498 255,207.5C 249.078,218.343 243.411,229.343 238,240.5C 224.414,249.376 210.914,258.376 197.5,267.5C 188.388,243.605 177.888,220.271 166,197.5C 159.627,184.75 150.127,175.083 137.5,168.5C 136.479,167.998 136.312,167.332 137,166.5C 143.236,159.593 150.069,153.427 157.5,148C 173.043,139.377 185.543,142.543 195,157.5C 202.796,170.043 208.963,183.377 213.5,197.5C 214.833,198.833 216.167,198.833 217.5,197.5C 256.186,131.394 306.519,75.5603 368.5,30C 380.073,22.2427 391.739,14.7427 403.5,7.5 Z"/></g>
</svg>
