<?xml version="1.0" encoding="UTF-8"?>
<!DOCTYPE svg PUBLIC "-//W3C//DTD SVG 1.1//EN" "http://www.w3.org/Graphics/SVG/1.1/DTD/svg11.dtd">
<svg xmlns="http://www.w3.org/2000/svg" version="1.1" width="547px" height="277px" style="shape-rendering:geometricPrecision; text-rendering:geometricPrecision; image-rendering:optimizeQuality; fill-rule:evenodd; clip-rule:evenodd" xmlns:xlink="http://www.w3.org/1999/xlink">
<g><path style="opacity:0.966" fill="#25744b" d="M 274.5,-0.5 C 276.167,-0.5 277.833,-0.5 279.5,-0.5C 282.445,4.28562 285.612,8.95229 289,13.5C 290.301,15.4021 290.968,17.4021 291,19.5C 250.259,54.3639 214.092,93.3639 182.5,136.5C 189.427,140.592 195.26,145.925 200,152.5C 206.388,162.609 211.721,173.276 216,184.5C 253.931,122.581 302.097,69.7475 360.5,26C 374.14,16.513 388.14,7.67968 402.5,-0.5C 404.167,-0.5 405.833,-0.5 407.5,-0.5C 410.741,4.97595 414.241,10.3093 418,15.5C 418.651,17.235 418.485,18.9017 417.5,20.5C 376.879,54.7802 341.212,93.4469 310.5,136.5C 318.143,140.976 324.31,146.976 329,154.5C 335.054,163.942 340.054,173.942 344,184.5C 381.883,121.936 430.383,68.7698 489.5,25C 502.729,16.2259 516.062,7.7259 529.5,-0.5C 531.167,-0.5 532.833,-0.5 534.5,-0.5C 538.171,4.68039 541.671,10.0137 545,15.5C 545.678,17.5976 545.511,19.5976 544.5,21.5C 543.833,21.5 543.5,21.8333 543.5,22.5C 541.611,23.604 539.945,24.9373 538.5,26.5C 537.833,26.5 537.5,26.8333 537.5,27.5C 535.246,28.1237 533.579,29.457 532.5,31.5C 531.833,31.5 531.5,31.8333 531.5,32.5C 528.94,34.2733 526.607,36.2733 524.5,38.5C 523.833,38.5 523.5,38.8333 523.5,39.5C 507.838,52.9959 493.338,67.6626 480,83.5C 436.984,132.497 400.651,186.164 371,244.5C 356.092,255.038 340.925,265.205 325.5,275C 323.231,275.758 321.064,275.591 319,274.5C 310.535,248.901 299.868,224.235 287,200.5C 283.992,195.15 280.492,190.15 276.5,185.5C 264.321,204.517 253.154,224.184 243,244.5C 228.106,255.059 212.939,265.225 197.5,275C 194.975,275.896 192.808,275.396 191,273.5C 181.907,247.648 170.907,222.648 158,198.5C 155.247,193.992 152.247,189.659 149,185.5C 136.482,203.858 125.482,223.191 116,243.5C 101.095,254.37 85.928,264.87 70.5,275C 68.5,275.667 66.5,275.667 64.5,275C 54.7977,247.564 42.9644,221.064 29,195.5C 21.793,184.131 11.9597,175.798 -0.5,170.5C -0.5,168.833 -0.5,167.167 -0.5,165.5C 3.70244,160.979 8.03577,156.479 12.5,152C 20.6375,144.597 29.9709,139.264 40.5,136C 49.2824,133.924 56.9491,135.924 63.5,142C 74.3609,154.548 82.5275,168.714 88,184.5C 135.12,107.546 197.287,45.8797 274.5,-0.5 Z"/></g>
<g><path style="opacity:1" fill="#fcc052" d="M 274.5,7.5 C 276.017,7.51056 277.184,8.17723 278,9.5C 280.221,12.2607 281.554,15.2607 282,18.5C 263.041,34.4583 245.041,51.4583 228,69.5C 209.219,90.7757 191.386,112.776 174.5,135.5C 164.056,137.223 154.723,141.389 146.5,148C 141,153.5 135.5,159 130,164.5C 128.813,166.044 128.48,167.711 129,169.5C 133.084,172.126 137.25,174.626 141.5,177C 142.574,177.739 143.241,178.739 143.5,180C 131.518,198.791 120.685,218.291 111,238.5C 97.6037,248.782 83.7703,258.449 69.5,267.5C 60.2998,242.434 49.4665,218.1 37,194.5C 30.8333,183 22,174.167 10.5,168C 9.54943,167.282 9.38277,166.449 10,165.5C 18.3335,155.426 28.5001,147.926 40.5,143C 51.465,141.898 59.965,146.065 66,155.5C 74.6342,168.104 81.1342,181.77 85.5,196.5C 86.723,197.614 88.0563,197.781 89.5,197C 129.209,128.95 181.209,71.9498 245.5,26C 255.231,19.8089 264.898,13.6422 274.5,7.5 Z"/></g>
<g><path style="opacity:1" fill="#fcc052" d="M 402.5,7.5 C 406.077,9.92208 408.743,13.2554 410.5,17.5C 369.523,51.9681 333.69,90.9681 303,134.5C 284.256,139.545 268.923,149.878 257,165.5C 256.257,167.441 256.424,169.274 257.5,171C 262.702,173.094 267.369,175.928 271.5,179.5C 258.987,199.184 247.487,219.518 237,240.5C 224.5,249 212,257.5 199.5,266C 198.365,266.749 197.365,266.583 196.5,265.5C 186.845,238.855 175.012,213.189 161,188.5C 154.201,179.528 146.034,172.195 136.5,166.5C 145.08,155.744 155.746,147.911 168.5,143C 174.897,141.532 180.564,142.865 185.5,147C 195.361,156.88 202.861,168.38 208,181.5C 209.268,186.637 210.934,191.637 213,196.5C 214.494,197.747 215.994,197.747 217.5,196.5C 263.357,117.977 325.023,54.9771 402.5,7.5 Z"/></g>
<g><path style="opacity:1" fill="#fcc052" d="M 529.5,7.5 C 533.099,8.95256 535.599,11.6192 537,15.5C 537.667,16.5 537.667,17.5 537,18.5C 503.52,46.6431 473.52,77.9764 447,112.5C 415.176,152.113 387.843,194.779 365,240.5C 351.414,249.376 337.914,258.376 324.5,267.5C 314.976,241.761 303.81,216.761 291,192.5C 284.783,181.949 276.283,173.783 265.5,168C 264.549,167.282 264.383,166.449 265,165.5C 273.5,155.656 283.667,148.156 295.5,143C 306.992,141.997 315.825,146.497 322,156.5C 330.049,168.933 336.215,182.266 340.5,196.5C 341.723,197.614 343.056,197.781 344.5,197C 377.884,140.028 420.217,90.3612 471.5,48C 490.026,33.2461 509.359,19.7461 529.5,7.5 Z"/></g>
<g><path style="opacity:0.008" fill="#000000" d="M 544.5,21.5 C 545.833,22.1667 545.833,22.1667 544.5,21.5 Z"/></g>
<g><path style="opacity:0.008" fill="#000000" d="M 543.5,22.5 C 543.833,22.5 544.167,22.5 544.5,22.5C 544.315,23.1701 543.981,23.1701 543.5,22.5 Z"/></g>
<g><path style="opacity:0.008" fill="#000000" d="M 538.5,26.5 C 539.833,27.1667 539.833,27.1667 538.5,26.5 Z"/></g>
<g><path style="opacity:0.008" fill="#000000" d="M 537.5,27.5 C 537.833,27.5 538.167,27.5 538.5,27.5C 538.315,28.1701 537.981,28.1701 537.5,27.5 Z"/></g>
<g><path style="opacity:0.008" fill="#000000" d="M 532.5,31.5 C 533.833,32.1667 533.833,32.1667 532.5,31.5 Z"/></g>
<g><path style="opacity:0.008" fill="#000000" d="M 531.5,32.5 C 531.833,32.5 532.167,32.5 532.5,32.5C 532.315,33.1701 531.981,33.1701 531.5,32.5 Z"/></g>
<g><path style="opacity:0.008" fill="#000000" d="M 524.5,38.5 C 525.833,39.1667 525.833,39.1667 524.5,38.5 Z"/></g>
<g><path style="opacity:0.008" fill="#000000" d="M 523.5,39.5 C 523.833,39.5 524.167,39.5 524.5,39.5C 524.315,40.1701 523.981,40.1701 523.5,39.5 Z"/></g>
</svg>
