<?xml version="1.0" encoding="UTF-8"?>
<!DOCTYPE svg PUBLIC "-//W3C//DTD SVG 1.1//EN" "http://www.w3.org/Graphics/SVG/1.1/DTD/svg11.dtd">
<svg xmlns="http://www.w3.org/2000/svg" version="1.1" width="292px" height="278px" style="shape-rendering:geometricPrecision; text-rendering:geometricPrecision; image-rendering:optimizeQuality; fill-rule:evenodd; clip-rule:evenodd" xmlns:xlink="http://www.w3.org/1999/xlink">
<g><path style="opacity:0.996" fill="#fcc053" d="M 270.5,-0.5 C 272.833,-0.5 275.167,-0.5 277.5,-0.5C 282.153,5.46233 286.32,11.7957 290,18.5C 290.667,20.5 290.667,22.5 290,24.5C 282.155,32.0101 273.988,39.1768 265.5,46C 205.863,104.288 157.03,170.454 119,244.5C 103.182,256.175 87.0156,267.175 70.5,277.5C 69.5,277.5 68.5,277.5 67.5,277.5C 65.6455,276.31 63.8121,274.977 62,273.5C 53.1052,246.714 41.7719,221.048 28,196.5C 20.8681,185.51 11.3681,177.176 -0.5,171.5C -0.5,169.5 -0.5,167.5 -0.5,165.5C 6.97134,155.863 15.638,147.363 25.5,140C 44.6931,127.665 61.1931,130.498 75,148.5C 80.5236,157.547 85.5236,166.88 90,176.5C 127.36,117.464 174.194,66.9635 230.5,25C 243.74,16.2422 257.073,7.74221 270.5,-0.5 Z"/></g>
<g><path style="opacity:1" fill="#21724b" d="M 270.5,15.5 C 273.955,16.1284 275.122,18.1284 274,21.5C 245.928,44.9044 220.595,70.9044 198,99.5C 162.89,141.648 132.89,187.315 108,236.5C 96.2531,244.624 84.4198,252.624 72.5,260.5C 63.0719,231.644 49.9052,204.644 33,179.5C 29.0877,174.917 24.5877,171.083 19.5,168C 17.9926,167.163 17.4926,165.996 18,164.5C 25.443,156.531 34.2763,150.697 44.5,147C 47.1667,146.333 49.8333,146.333 52.5,147C 60.0504,151.55 65.8837,157.717 70,165.5C 75.6412,176.091 80.3079,187.091 84,198.5C 86.553,200.729 89.3864,201.062 92.5,199.5C 130.315,134.507 179.648,79.6741 240.5,35C 250.735,28.725 260.735,22.225 270.5,15.5 Z"/></g>
</svg>
