<?xml version="1.0" encoding="UTF-8"?>
<!DOCTYPE svg PUBLIC "-//W3C//DTD SVG 1.1//EN" "http://www.w3.org/Graphics/SVG/1.1/DTD/svg11.dtd">
<svg xmlns="http://www.w3.org/2000/svg" version="1.1" width="291px" height="277px" style="shape-rendering:geometricPrecision; text-rendering:geometricPrecision; image-rendering:optimizeQuality; fill-rule:evenodd; clip-rule:evenodd" xmlns:xlink="http://www.w3.org/1999/xlink">
<g><path style="opacity:0.981" fill="#1f734c" d="M 272.5,-0.5 C 272.833,-0.5 273.167,-0.5 273.5,-0.5C 276.587,0.0530108 279.087,1.71968 281,4.5C 283.942,9.4056 287.109,14.0723 290.5,18.5C 290.5,20.5 290.5,22.5 290.5,24.5C 258.152,51.3485 228.986,81.3485 203,114.5C 170.603,154.276 142.936,197.276 120,243.5C 104.263,254.753 88.4301,265.753 72.5,276.5C 70.1667,276.5 67.8333,276.5 65.5,276.5C 55.5563,251.524 44.7229,226.857 33,202.5C 25.9456,189.112 15.6123,179.112 2,172.5C 0,169.167 0,165.833 2,162.5C 38.7714,118.609 68.4381,122.943 91,175.5C 127.72,117.106 173.886,67.2729 229.5,26C 243.261,16.1254 257.594,7.29211 272.5,-0.5 Z"/></g>
<g><path style="opacity:1" fill="#fcfdfc" d="M 270.5,15.5 C 272.757,16.5618 273.923,18.2285 274,20.5C 245.595,44.2375 219.928,70.5708 197,99.5C 162.346,141.448 132.68,186.781 108,235.5C 96.0587,243.109 84.392,251.109 73,259.5C 64.1512,237.469 54.4845,215.802 44,194.5C 37.5536,183.256 29.0536,173.923 18.5,166.5C 17.479,165.998 17.3123,165.332 18,164.5C 24.7046,157.126 32.5379,151.292 41.5,147C 45.5,146.333 49.5,146.333 53.5,147C 63.622,154.794 71.122,164.628 76,176.5C 78.863,183.422 81.5297,190.422 84,197.5C 86.553,199.729 89.3864,200.062 92.5,198.5C 131.34,131.815 182.34,75.9815 245.5,31C 253.897,25.8082 262.231,20.6416 270.5,15.5 Z"/></g>
</svg>
