<?xml version="1.0" encoding="UTF-8"?>
<!DOCTYPE svg PUBLIC "-//W3C//DTD SVG 1.1//EN" "http://www.w3.org/Graphics/SVG/1.1/DTD/svg11.dtd">
<svg xmlns="http://www.w3.org/2000/svg" version="1.1" width="291px" height="277px" style="shape-rendering:geometricPrecision; text-rendering:geometricPrecision; image-rendering:optimizeQuality; fill-rule:evenodd; clip-rule:evenodd" xmlns:xlink="http://www.w3.org/1999/xlink">
<g><path style="opacity:0.948" fill="#25744b" d="M 275.5,-0.5 C 276.167,-0.5 276.833,-0.5 277.5,-0.5C 282.064,4.94807 286.398,10.6147 290.5,16.5C 290.5,17.5 290.5,18.5 290.5,19.5C 253.723,51.0307 220.557,86.0307 191,124.5C 161.402,162.002 136.068,202.335 115,245.5C 100.013,255.732 85.1797,266.066 70.5,276.5C 68.5,276.5 66.5,276.5 64.5,276.5C 58.8134,263.78 53.6467,250.78 49,237.5C 42.5273,223.221 35.5273,209.221 28,195.5C 21.1797,184.337 11.6797,176.337 -0.5,171.5C -0.5,169.5 -0.5,167.5 -0.5,165.5C 5.63143,159.87 11.6314,154.036 17.5,148C 26.7032,140.044 37.3699,136.044 49.5,136C 53.0487,136.774 56.382,138.107 59.5,140C 72.9033,152.623 82.4033,167.789 88,185.5C 113.806,141.998 145.306,102.831 182.5,68C 210.757,41.2288 241.757,18.3955 275.5,-0.5 Z"/></g>
<g><path style="opacity:1" fill="#fdc052" d="M 274.5,7.5 C 276.785,8.95684 278.618,10.9568 280,13.5C 281.187,15.0444 281.52,16.7111 281,18.5C 253.632,41.5347 228.632,66.868 206,94.5C 182.199,124.103 159.866,154.77 139,186.5C 128.557,203.718 118.89,221.384 110,239.5C 96.7613,249.203 83.2613,258.537 69.5,267.5C 60.3883,243.605 49.8883,220.271 38,197.5C 31.6939,184.694 22.1939,175.027 9.5,168.5C 8.47899,167.998 8.31232,167.332 9,166.5C 15.6141,158.879 23.1141,152.379 31.5,147C 45.8979,139.77 57.3979,142.936 66,156.5C 74.6342,169.104 81.1342,182.77 85.5,197.5C 86.365,198.583 87.365,198.749 88.5,198C 134.499,118.835 196.499,55.3349 274.5,7.5 Z"/></g>
</svg>
