<svg width="16" height="17" viewBox="0 0 16 17" fill="none" xmlns="http://www.w3.org/2000/svg">
<path d="M2.6665 7.16671C2.6665 4.65271 2.6665 3.39537 3.44784 2.61471C4.22917 1.83404 5.48584 1.83337 7.99984 1.83337H8.99984C11.5138 1.83337 12.7712 1.83337 13.5518 2.61471C14.3325 3.39604 14.3332 4.65271 14.3332 7.16671V9.83337C14.3332 12.3474 14.3332 13.6047 13.5518 14.3854C12.7705 15.166 11.5138 15.1667 8.99984 15.1667H7.99984C5.48584 15.1667 4.2285 15.1667 3.44784 14.3854C2.66717 13.604 2.6665 12.3474 2.6665 9.83337V7.16671Z" stroke="#222222" stroke-linecap="round" stroke-linejoin="round"/>
<path d="M6.53317 8.48267C6.2485 7.98667 6.11117 7.582 6.0285 7.17133C5.90584 6.56467 6.1865 5.97133 6.6505 5.59267C6.84717 5.43267 7.07184 5.48733 7.18784 5.696L7.44984 6.166C7.65717 6.538 7.76117 6.72467 7.7405 6.922C7.7205 7.11933 7.5805 7.28 7.3005 7.602L6.53317 8.48267ZM6.53317 8.48267C7.13324 9.51092 7.98892 10.3666 9.01717 10.9667M9.01717 10.9667C9.51317 11.2513 9.91784 11.3887 10.3285 11.4713C10.9352 11.594 11.5285 11.3133 11.9072 10.8493C12.0672 10.6527 12.0125 10.428 11.8038 10.312L11.3345 10.05C10.9612 9.84267 10.7752 9.73867 10.5778 9.75933C10.3805 9.77933 10.2198 9.91933 9.89784 10.1993L9.01717 10.9667ZM3.33317 4.5H1.6665M3.33317 8.5H1.6665M3.33317 12.5H1.6665" stroke="#222222" stroke-linecap="round" stroke-linejoin="round"/>
</svg>
