<svg width="12" height="12" viewBox="0 0 12 12" fill="none" xmlns="http://www.w3.org/2000/svg">
<path d="M5.34 0.0331761C2.34 0.359843 0 2.90651 0 5.99984C0 7.59114 0.632141 9.11726 1.75736 10.2425C2.88258 11.3677 4.4087 11.9998 6 11.9998C9.08667 11.9998 11.6333 9.66651 11.9667 6.66651C12.0267 6.13984 11.4467 5.71984 10.94 6.03318C10.3958 6.38055 9.7682 6.57526 9.12292 6.59694C8.47765 6.61861 7.83842 6.46645 7.27211 6.15638C6.70581 5.84631 6.23326 5.38973 5.90391 4.83442C5.57455 4.27911 5.40052 3.64548 5.4 2.99984C5.4 2.29318 5.60667 1.62651 5.96 1.07318C6.26 0.62651 5.93333 -0.0134906 5.34 0.0331761Z" fill="black"/>
</svg>
