<svg width="16" height="17" viewBox="0 0 16 17" fill="none" xmlns="http://www.w3.org/2000/svg">
<path d="M7.33301 6.50004H8.66634V5.16671H7.33301M7.99967 13.8334C5.05967 13.8334 2.66634 11.44 2.66634 8.50004C2.66634 5.56004 5.05967 3.16671 7.99967 3.16671C10.9397 3.16671 13.333 5.56004 13.333 8.50004C13.333 11.44 10.9397 13.8334 7.99967 13.8334ZM7.99967 1.83337C7.1242 1.83337 6.25729 2.00581 5.44845 2.34084C4.63961 2.67588 3.90469 3.16694 3.28563 3.786C2.03539 5.03624 1.33301 6.73193 1.33301 8.50004C1.33301 10.2682 2.03539 11.9638 3.28563 13.2141C3.90469 13.8331 4.63961 14.3242 5.44845 14.6592C6.25729 14.9943 7.1242 15.1667 7.99967 15.1667C9.76778 15.1667 11.4635 14.4643 12.7137 13.2141C13.964 11.9638 14.6663 10.2682 14.6663 8.50004C14.6663 7.62456 14.4939 6.75765 14.1589 5.94882C13.8238 5.13998 13.3328 4.40505 12.7137 3.786C12.0947 3.16694 11.3597 2.67588 10.5509 2.34084C9.74206 2.00581 8.87515 1.83337 7.99967 1.83337ZM7.33301 11.8334H8.66634V7.83337H7.33301V11.8334Z" fill="#222222"/>
</svg>
