<svg width="14" height="14" viewBox="0 0 14 14" fill="none" xmlns="http://www.w3.org/2000/svg">
<path d="M6.99301 0.333496C3.31301 0.333496 0.333008 3.32016 0.333008 7.00016C0.333008 10.6802 3.31301 13.6668 6.99301 13.6668C10.6797 13.6668 13.6663 10.6802 13.6663 7.00016C13.6663 3.32016 10.6797 0.333496 6.99301 0.333496ZM11.613 4.3335H9.64634C9.43769 3.5078 9.12872 2.71076 8.72634 1.96016C9.94242 2.37883 10.9671 3.22131 11.613 4.3335ZM6.99967 1.6935C7.55301 2.4935 7.98634 3.38016 8.27301 4.3335H5.72634C6.01301 3.38016 6.44634 2.4935 6.99967 1.6935ZM1.83967 8.3335C1.73301 7.90683 1.66634 7.46016 1.66634 7.00016C1.66634 6.54016 1.73301 6.0935 1.83967 5.66683H4.09301C4.03967 6.10683 3.99967 6.54683 3.99967 7.00016C3.99967 7.4535 4.03967 7.8935 4.09301 8.3335H1.83967ZM2.38634 9.66683H4.35301C4.56634 10.5002 4.87301 11.3002 5.27301 12.0402C4.05565 11.6238 3.03023 10.7807 2.38634 9.66683ZM4.35301 4.3335H2.38634C3.03023 3.21961 4.05565 2.37654 5.27301 1.96016C4.87063 2.71076 4.56166 3.5078 4.35301 4.3335ZM6.99967 12.3068C6.44634 11.5068 6.01301 10.6202 5.72634 9.66683H8.27301C7.98634 10.6202 7.55301 11.5068 6.99967 12.3068ZM8.55967 8.3335H5.43967C5.37967 7.8935 5.33301 7.4535 5.33301 7.00016C5.33301 6.54683 5.37967 6.10016 5.43967 5.66683H8.55967C8.61967 6.10016 8.66634 6.54683 8.66634 7.00016C8.66634 7.4535 8.61967 7.8935 8.55967 8.3335ZM8.72634 12.0402C9.12634 11.3002 9.43301 10.5002 9.64634 9.66683H11.613C10.9671 10.779 9.94242 11.6215 8.72634 12.0402ZM9.90634 8.3335C9.95967 7.8935 9.99967 7.4535 9.99967 7.00016C9.99967 6.54683 9.95967 6.10683 9.90634 5.66683H12.1597C12.2663 6.0935 12.333 6.54016 12.333 7.00016C12.333 7.46016 12.2663 7.90683 12.1597 8.3335H9.90634Z" fill="black"/>
</svg>
