<svg width="16" height="16" viewBox="0 0 16 16" fill="none" xmlns="http://www.w3.org/2000/svg">
<path d="M7.99967 4.3335C8.4417 4.3335 8.86562 4.50909 9.17819 4.82165C9.49075 5.13421 9.66634 5.55814 9.66634 6.00016C9.66634 6.21903 9.62323 6.43576 9.53947 6.63797C9.45572 6.84018 9.33295 7.02391 9.17819 7.17867C9.02342 7.33344 8.83969 7.4562 8.63748 7.53996C8.43527 7.62372 8.21854 7.66683 7.99967 7.66683C7.55765 7.66683 7.13372 7.49123 6.82116 7.17867C6.5086 6.86611 6.33301 6.44219 6.33301 6.00016C6.33301 5.55814 6.5086 5.13421 6.82116 4.82165C7.13372 4.50909 7.55765 4.3335 7.99967 4.3335ZM7.99967 1.3335C9.23735 1.3335 10.4243 1.82516 11.2995 2.70033C12.1747 3.5755 12.6663 4.76249 12.6663 6.00016C12.6663 9.50016 7.99967 14.6668 7.99967 14.6668C7.99967 14.6668 3.33301 9.50016 3.33301 6.00016C3.33301 4.76249 3.82467 3.5755 4.69984 2.70033C5.57501 1.82516 6.762 1.3335 7.99967 1.3335ZM7.99967 2.66683C7.11562 2.66683 6.26777 3.01802 5.64265 3.64314C5.01753 4.26826 4.66634 5.11611 4.66634 6.00016C4.66634 6.66683 4.66634 8.00016 7.99967 12.4735C11.333 8.00016 11.333 6.66683 11.333 6.00016C11.333 5.11611 10.9818 4.26826 10.3567 3.64314C9.73158 3.01802 8.88373 2.66683 7.99967 2.66683Z" fill="#222222"/>
</svg>
