<svg width="14" height="14" viewBox="0 0 14 14" fill="none" xmlns="http://www.w3.org/2000/svg">
<path d="M9.04634 6.50016L8.44634 7.1135C7.96634 7.5935 7.66634 8.00016 7.66634 9.00016H6.33301V8.66683C6.33301 7.92683 6.63301 7.26016 7.11301 6.78016L7.93967 5.94016C8.18634 5.70016 8.33301 5.36683 8.33301 5.00016C8.33301 4.64654 8.19253 4.3074 7.94248 4.05735C7.69243 3.8073 7.3533 3.66683 6.99967 3.66683C6.64605 3.66683 6.30691 3.8073 6.05687 4.05735C5.80682 4.3074 5.66634 4.64654 5.66634 5.00016H4.33301C4.33301 4.29292 4.61396 3.61464 5.11406 3.11454C5.61415 2.61445 6.29243 2.3335 6.99967 2.3335C7.70692 2.3335 8.38519 2.61445 8.88529 3.11454C9.38539 3.61464 9.66634 4.29292 9.66634 5.00016C9.66538 5.56232 9.44257 6.10138 9.04634 6.50016ZM7.66634 11.6668H6.33301V10.3335H7.66634M6.99967 0.333496C6.1242 0.333496 5.25729 0.505935 4.44845 0.840966C3.63961 1.176 2.90469 1.66706 2.28563 2.28612C1.03539 3.53636 0.333008 5.23205 0.333008 7.00016C0.333008 8.76827 1.03539 10.464 2.28563 11.7142C2.90469 12.3333 3.63961 12.8243 4.44845 13.1594C5.25729 13.4944 6.1242 13.6668 6.99967 13.6668C8.76778 13.6668 10.4635 12.9644 11.7137 11.7142C12.964 10.464 13.6663 8.76827 13.6663 7.00016C13.6663 3.3135 10.6663 0.333496 6.99967 0.333496Z" fill="black"/>
</svg>
