<svg width="16" height="16" viewBox="0 0 16 16" fill="none" xmlns="http://www.w3.org/2000/svg">
<g clip-path="url(#clip0_537_5893)">
<path d="M6.34238 15.9995L6.0206 13.4288C5.73675 13.3429 5.43009 13.2084 5.1006 13.0253C4.77053 12.8416 4.48994 12.6448 4.25883 12.4351L1.88727 13.444L0.229492 10.5551L2.27927 9.00929C2.2526 8.84929 2.23097 8.68396 2.21438 8.51329C2.1966 8.34262 2.18771 8.17699 2.18771 8.0164C2.18771 7.86707 2.1966 7.71003 2.21438 7.54529C2.23097 7.38055 2.2526 7.19507 2.27927 6.98884L0.229492 5.44485L1.88727 2.58973L4.24105 3.58173C4.50653 3.3607 4.79394 3.16129 5.10327 2.98351C5.41142 2.80573 5.71157 2.66825 6.00371 2.57107L6.34149 -0.000488281H9.65883L9.97972 2.58796C10.3205 2.70766 10.6215 2.84485 10.8828 2.99951C11.1442 3.15418 11.4135 3.34796 11.6908 3.58084L14.1131 2.58973L15.7708 5.44396L13.6535 7.0404C13.7021 7.2241 13.7293 7.3927 13.7353 7.54618C13.7412 7.69966 13.7442 7.85077 13.7442 7.99951C13.7442 8.13759 13.7382 8.28307 13.7264 8.43596C13.7151 8.58944 13.689 8.77492 13.6482 8.9924L15.7317 10.5551L14.0739 13.444L11.6908 12.4182C11.4141 12.6511 11.1356 12.8505 10.8553 13.0164C10.575 13.1823 10.2831 13.3142 9.97972 13.412L9.65883 15.9995H6.34238ZM7.11127 15.1106H8.84994L9.17794 12.7035C9.62594 12.585 10.0289 12.4223 10.3868 12.2155C10.7459 12.0087 11.111 11.7254 11.4819 11.3657L13.6997 12.3106L14.5833 10.7995L12.6375 9.33818C12.7116 9.08514 12.7608 8.85225 12.785 8.63951C12.8088 8.42736 12.8206 8.21403 12.8206 7.99951C12.8206 7.77433 12.8088 7.56099 12.785 7.35951C12.7613 7.15803 12.7122 6.9367 12.6375 6.69551L14.617 5.19951L13.7335 3.6884L11.465 4.63951C11.196 4.34381 10.8425 4.06677 10.4046 3.8084C9.96609 3.55062 9.55127 3.37966 9.16016 3.29551L8.88905 0.888401H7.1166L6.83927 3.27862C6.39127 3.37403 5.97942 3.5281 5.60371 3.74085C5.2286 3.95299 4.85527 4.24485 4.48371 4.6164L2.26683 3.6884L1.38327 5.19951L3.31127 6.63951C3.2372 6.83862 3.18534 7.05492 3.15571 7.2884C3.12609 7.52188 3.11127 7.76485 3.11127 8.01729C3.11127 8.24248 3.12609 8.46618 3.15571 8.6884C3.18534 8.91062 3.23157 9.12692 3.29438 9.33729L1.38327 10.7995L2.26683 12.3106L4.46683 11.3773C4.81586 11.7293 5.17794 12.0117 5.55305 12.2244C5.92875 12.4371 6.35186 12.6028 6.82238 12.7213L7.11127 15.1106ZM7.97616 10.2217C8.59601 10.2217 9.12135 10.0063 9.55216 9.57551C9.98298 9.1447 10.1984 8.61936 10.1984 7.99951C10.1984 7.37966 9.98298 6.85433 9.55216 6.42351C9.12135 5.9927 8.59601 5.77729 7.97616 5.77729C7.35275 5.77729 6.82653 5.9927 6.39749 6.42351C5.96846 6.85433 5.75394 7.37966 5.75394 7.99951C5.75394 8.61936 5.96846 9.1447 6.39749 9.57551C6.82653 10.0063 7.35275 10.2217 7.97616 10.2217Z" fill="#222222"/>
</g>
<defs>
<clipPath id="clip0_537_5893">
<rect width="16" height="16" fill="white"/>
</clipPath>
</defs>
</svg>
