<svg width="16" height="16" viewBox="0 0 16 16" fill="none" xmlns="http://www.w3.org/2000/svg">
<path d="M8.00065 6.66683C9.47341 6.66683 10.6673 5.47292 10.6673 4.00016C10.6673 2.5274 9.47341 1.3335 8.00065 1.3335C6.52789 1.3335 5.33398 2.5274 5.33398 4.00016C5.33398 5.47292 6.52789 6.66683 8.00065 6.66683Z" stroke="#222222" stroke-width="1.5"/>
<path d="M13.3323 12.0003C13.3337 11.891 13.3337 11.7797 13.3337 11.667C13.3337 10.0103 10.9457 8.66699 8.00033 8.66699C5.05499 8.66699 2.66699 10.0103 2.66699 11.667C2.66699 13.3237 2.66699 14.667 8.00033 14.667C9.48766 14.667 10.5603 14.5623 11.3337 14.3757" stroke="#222222" stroke-width="1.5" stroke-linecap="round"/>
</svg>
