<?xml version="1.0" standalone="no"?>
<!DOCTYPE svg PUBLIC "-//W3C//DTD SVG 20010904//EN"
 "http://www.w3.org/TR/2001/REC-SVG-20010904/DTD/svg10.dtd">
<svg version="1.0" xmlns="http://www.w3.org/2000/svg"
 width="800.000000pt" height="800.000000pt" viewBox="0 0 800.000000 800.000000"
 preserveAspectRatio="xMidYMid meet">

<g transform="translate(0.000000,800.000000) scale(0.100000,-0.100000)"
fill="#000000" stroke="none">
<path d="M2090 7503 c-156 -5 -388 -25 -464 -39 -191 -36 -398 -126 -558 -241
-103 -74 -250 -227 -320 -334 -147 -223 -211 -421 -240 -749 -19 -214 -19
-4068 0 -4290 27 -313 92 -517 231 -726 244 -369 589 -565 1081 -616 83 -8
659 -13 2045 -15 2236 -5 2344 -2 2600 64 521 135 898 540 999 1069 39 208 41
316 41 2374 0 2093 -2 2174 -46 2392 -102 507 -474 906 -970 1042 -266 72
-404 76 -2539 74 -982 -1 -1819 -3 -1860 -5z m2944 -865 c2 -7 11 -71 21 -142
19 -147 47 -241 104 -354 132 -261 399 -508 716 -663 116 -56 214 -84 337 -94
l86 -7 7 -102 c3 -55 5 -258 3 -451 l-3 -350 -125 2 c-334 4 -761 139 -1054
334 -32 21 -62 39 -67 39 -4 0 -10 -456 -12 -1012 -4 -1104 -2 -1056 -63
-1273 -103 -363 -357 -710 -679 -927 -496 -334 -1139 -379 -1680 -118 -147 71
-374 245 -499 383 -153 168 -288 398 -355 602 -63 193 -76 277 -76 530 0 201
3 243 23 332 130 593 547 1064 1110 1252 224 75 524 106 728 75 l31 -4 8 -456
c4 -268 3 -460 -2 -465 -5 -5 -37 -3 -78 6 -315 66 -656 -86 -818 -365 -40
-69 -75 -190 -88 -303 -32 -272 76 -507 314 -685 135 -102 228 -137 393 -149
272 -19 559 132 703 371 44 73 89 206 101 298 6 44 10 797 10 1891 l0 1817
450 0 c352 0 451 -3 454 -12z"/>
</g>
</svg>
